solid OpenSCAD_Model
  facet normal 1 0 0
    outer loop
      vertex -6 1.5 -13
      vertex -6 17.5 0
      vertex -6 1.5 0
    endloop
  endfacet
  facet normal 1 0 0
    outer loop
      vertex -6 1.5 -13
      vertex -6 17.5 -13
      vertex -6 17.5 0
    endloop
  endfacet
  facet normal 0 1 0
    outer loop
      vertex -6 1.5 -13
      vertex -6 1.5 0
      vertex 6 1.5 0
    endloop
  endfacet
  facet normal 0 -1 0
    outer loop
      vertex -6 17.5 -13
      vertex -3.5 17.5 -13
      vertex -6 17.5 0
    endloop
  endfacet
  facet normal 0 -1 0
    outer loop
      vertex -3.5 17.5 -13
      vertex -3.5 17.5 0
      vertex -6 17.5 0
    endloop
  endfacet
  facet normal 0 1 0
    outer loop
      vertex -6 1.5 -13
      vertex 6 1.5 0
      vertex 6 1.5 -13
    endloop
  endfacet
  facet normal -1 0 0
    outer loop
      vertex 6 1.5 -13
      vertex 6 1.5 0
      vertex 6 17.5 -13
    endloop
  endfacet
  facet normal -1 0 0
    outer loop
      vertex 6 1.5 0
      vertex 6 17.5 0
      vertex 6 17.5 -13
    endloop
  endfacet
  facet normal 0 -1 0
    outer loop
      vertex 3.5 17.5 -13
      vertex 6 17.5 -13
      vertex 3.5 17.5 0
    endloop
  endfacet
  facet normal 0 -1 0
    outer loop
      vertex 6 17.5 -13
      vertex 6 17.5 0
      vertex 3.5 17.5 0
    endloop
  endfacet
  facet normal 1 0 0
    outer loop
      vertex -3.5 17.5 -13
      vertex -3.5 19 -13
      vertex -3.5 17.5 0
    endloop
  endfacet
  facet normal 1 0 0
    outer loop
      vertex -3.5 19 -13
      vertex -3.5 19 0
      vertex -3.5 17.5 0
    endloop
  endfacet
  facet normal -1 0 0
    outer loop
      vertex 3.5 17.5 -13
      vertex 3.5 19 0
      vertex 3.5 19 -13
    endloop
  endfacet
  facet normal -1 0 0
    outer loop
      vertex 3.5 17.5 -13
      vertex 3.5 17.5 0
      vertex 3.5 19 0
    endloop
  endfacet
  facet normal 0 0 -1
    outer loop
      vertex -7.5 0 -13
      vertex -7.5 19 -13
      vertex -6 1.5 -13
    endloop
  endfacet
  facet normal -1 0 0
    outer loop
      vertex -7.5 0 -13
      vertex -7.5 0 0
      vertex -7.5 19 0
    endloop
  endfacet
  facet normal 0 0 -1
    outer loop
      vertex -6 1.5 -13
      vertex -7.5 19 -13
      vertex -6 17.5 -13
    endloop
  endfacet
  facet normal -1 0 0
    outer loop
      vertex -7.5 0 -13
      vertex -7.5 19 0
      vertex -7.5 19 -13
    endloop
  endfacet
  facet normal 0 0 -1
    outer loop
      vertex -7.5 0 -13
      vertex -6 1.5 -13
      vertex 7.5 0 -13
    endloop
  endfacet
  facet normal 0 -1 0
    outer loop
      vertex -7.5 0 -13
      vertex 7.5 0 0
      vertex -7.5 0 0
    endloop
  endfacet
  facet normal 0 0 -1
    outer loop
      vertex -6 17.5 -13
      vertex -7.5 19 -13
      vertex -3.5 19 -13
    endloop
  endfacet
  facet normal 0 1 0
    outer loop
      vertex -7.5 19 -13
      vertex -7.5 19 0
      vertex -3.5 19 -13
    endloop
  endfacet
  facet normal 0 0 -1
    outer loop
      vertex -6 17.5 -13
      vertex -3.5 19 -13
      vertex -3.5 17.5 -13
    endloop
  endfacet
  facet normal 0 1 0
    outer loop
      vertex -3.5 19 -13
      vertex -7.5 19 0
      vertex -3.5 19 0
    endloop
  endfacet
  facet normal 0 0 -1
    outer loop
      vertex -6 1.5 -13
      vertex 6 1.5 -13
      vertex 7.5 0 -13
    endloop
  endfacet
  facet normal 0 -1 0
    outer loop
      vertex -7.5 0 -13
      vertex 7.5 0 -13
      vertex 7.5 0 0
    endloop
  endfacet
  facet normal 0 0 -1
    outer loop
      vertex 6 1.5 -13
      vertex 6 17.5 -13
      vertex 7.5 0 -13
    endloop
  endfacet
  facet normal 1 0 0
    outer loop
      vertex 7.5 0 -13
      vertex 7.5 19 -13
      vertex 7.5 0 0
    endloop
  endfacet
  facet normal 0 0 -1
    outer loop
      vertex 7.5 0 -13
      vertex 6 17.5 -13
      vertex 7.5 19 -13
    endloop
  endfacet
  facet normal 1 0 0
    outer loop
      vertex 7.5 0 0
      vertex 7.5 19 -13
      vertex 7.5 19 0
    endloop
  endfacet
  facet normal 0 0 -1
    outer loop
      vertex 3.5 17.5 -13
      vertex 3.5 19 -13
      vertex 6 17.5 -13
    endloop
  endfacet
  facet normal 0 1 0
    outer loop
      vertex 3.5 19 -13
      vertex 3.5 19 0
      vertex 7.5 19 -13
    endloop
  endfacet
  facet normal 0 0 -1
    outer loop
      vertex 3.5 19 -13
      vertex 7.5 19 -13
      vertex 6 17.5 -13
    endloop
  endfacet
  facet normal 0 1 0
    outer loop
      vertex 7.5 19 -13
      vertex 3.5 19 0
      vertex 7.5 19 0
    endloop
  endfacet
  facet normal -1 0 0
    outer loop
      vertex -7.5 0 0
      vertex -7.5 0 0.6
      vertex -7.5 19 0.6
    endloop
  endfacet
  facet normal 0 -1 0
    outer loop
      vertex -7.5 0 0
      vertex -1 0 0.6
      vertex -7.5 0 0.6
    endloop
  endfacet
  facet normal -1 0 0
    outer loop
      vertex -7.5 0 0
      vertex -7.5 19 0.6
      vertex -7.5 19 0
    endloop
  endfacet
  facet normal 0 -1 0
    outer loop
      vertex -7.5 0 0
      vertex 1 0 0.6
      vertex -1 0 0.6
    endloop
  endfacet
  facet normal 0 0 -1
    outer loop
      vertex -6 1.5 0
      vertex -6 17.5 0
      vertex 6 1.5 0
    endloop
  endfacet
  facet normal 0 0 1
    outer loop
      vertex -7.5 0 0.6
      vertex -1 0 0.6
      vertex -1 30 0.6
    endloop
  endfacet
  facet normal 0 0 -1
    outer loop
      vertex -6 17.5 0
      vertex -3.5 17.5 0
      vertex 6 1.5 0
    endloop
  endfacet
  facet normal 0 0 1
    outer loop
      vertex -7.5 0 0.6
      vertex -1 30 0.6
      vertex -7.5 19 0.6
    endloop
  endfacet
  facet normal -0.8609265282143155 0.508729312126641 0
    outer loop
      vertex -7.5 19 0
      vertex -7.5 19 0.6
      vertex -1 30 0
    endloop
  endfacet
  facet normal 0 0 -1
    outer loop
      vertex -7.5 19 0
      vertex -1 30 0
      vertex -3.5 19 0
    endloop
  endfacet
  facet normal 0 0 -1
    outer loop
      vertex -3.5 17.5 0
      vertex -3.5 19 0
      vertex -1 30 0
    endloop
  endfacet
  facet normal -0.8609265282143155 0.508729312126641 0
    outer loop
      vertex -7.5 19 0.6
      vertex -1 30 0.6
      vertex -1 30 0
    endloop
  endfacet
  facet normal 0 0 -1
    outer loop
      vertex -3.5 17.5 0
      vertex -1 30 0
      vertex -1 27 0
    endloop
  endfacet
  facet normal 0 1 0
    outer loop
      vertex -1 30 0
      vertex -1 30 0.6
      vertex 1 30 0.6
    endloop
  endfacet
  facet normal 0 -1 0
    outer loop
      vertex 7.5 0 0.6
      vertex 1 0 0.6
      vertex -7.5 0 0
    endloop
  endfacet
  facet normal 0 -1 0
    outer loop
      vertex -7.5 0 0
      vertex 7.5 0 0
      vertex 7.5 0 0.6
    endloop
  endfacet
  facet normal 0 0 1
    outer loop
      vertex 7.5 0 0.6
      vertex 1 30 0.6
      vertex 1 0 0.6
    endloop
  endfacet
  facet normal 1 0 0
    outer loop
      vertex 7.5 0 0
      vertex 7.5 19 0
      vertex 7.5 0 0.6
    endloop
  endfacet
  facet normal 0 0 -1
    outer loop
      vertex 6 1.5 0
      vertex 3.5 17.5 0
      vertex 6 17.5 0
    endloop
  endfacet
  facet normal 1 0 0
    outer loop
      vertex 7.5 0 0.6
      vertex 7.5 19 0
      vertex 7.5 19 0.6
    endloop
  endfacet
  facet normal 0 0 -1
    outer loop
      vertex -3.5 17.5 0
      vertex -1 27 0
      vertex 6 1.5 0
    endloop
  endfacet
  facet normal 0 0 -1
    outer loop
      vertex -1 27 0
      vertex 3.5 17.5 0
      vertex 6 1.5 0
    endloop
  endfacet
  facet normal 0 0 -1
    outer loop
      vertex -1 27 0
      vertex 3.5 19 0
      vertex 3.5 17.5 0
    endloop
  endfacet
  facet normal 0 0 -1
    outer loop
      vertex -1 27 0
      vertex 1 27 0
      vertex 3.5 19 0
    endloop
  endfacet
  facet normal 0 1 0
    outer loop
      vertex -1 30 0
      vertex 1 30 0.6
      vertex 1 30 0
    endloop
  endfacet
  facet normal 0 0 -1
    outer loop
      vertex 1 27 0
      vertex 1 30 0
      vertex 7.5 19 0
    endloop
  endfacet
  facet normal 0.8609265282143155 0.508729312126641 0
    outer loop
      vertex 1 30 0
      vertex 1 30 0.6
      vertex 7.5 19 0
    endloop
  endfacet
  facet normal 0 0 1
    outer loop
      vertex 7.5 0 0.6
      vertex 7.5 19 0.6
      vertex 1 30 0.6
    endloop
  endfacet
  facet normal 0 0 -1
    outer loop
      vertex 3.5 19 0
      vertex 1 27 0
      vertex 7.5 19 0
    endloop
  endfacet
  facet normal 0.8609265282143155 0.508729312126641 0
    outer loop
      vertex 1 30 0.6
      vertex 7.5 19 0.6
      vertex 7.5 19 0
    endloop
  endfacet
  facet normal 0 -1 0
    outer loop
      vertex -0.18477590650225736 27 -8.876536686473019
      vertex -0.1546020906725474 27 -8.926878656832729
      vertex -0.18830881303660418 27 -8.867377970678445
    endloop
  endfacet
  facet normal 0 -1 0
    outer loop
      vertex -0.19138806714644177 27 -8.858056935450893
      vertex -0.18830881303660418 27 -8.867377970678445
      vertex -0.1546020906725474 27 -8.926878656832729
    endloop
  endfacet
  facet normal 0 -1 0
    outer loop
      vertex -0.19138806714644177 27 -8.858056935450893
      vertex -0.1546020906725474 27 -8.926878656832729
      vertex -0.1940062506389088 27 -8.848596035980654
    endloop
  endfacet
  facet normal 0 -1 0
    outer loop
      vertex -0.1546020906725474 27 -8.926878656832729
      vertex -0.1961570560806461 27 -8.839018064403227
      vertex -0.1940062506389088 27 -8.848596035980654
    endloop
  endfacet
  facet normal 0 -1 0
    outer loop
      vertex -0.10282054883864436 27 -8.971545722000055
      vertex -0.09427934736519954 27 -8.976384252869671
      vertex -0.1546020906725474 27 -8.926878656832729
    endloop
  endfacet
  facet normal 0 -1 0
    outer loop
      vertex -0.16629392246050906 27 -8.91111404660392
      vertex -0.1546020906725474 27 -8.926878656832729
      vertex -0.1715457220000544 27 -8.902820548838646
    endloop
  endfacet
  facet normal 0 -1 0
    outer loop
      vertex -0.14819022507099183 27 -8.934311790969405
      vertex -0.14142135623730953 27 -8.94142135623731
      vertex -0.1546020906725474 27 -8.926878656832729
    endloop
  endfacet
  facet normal 0 -1 0
    outer loop
      vertex -0.16629392246050906 27 -8.91111404660392
      vertex -0.160641506296129 27 -8.919139860898488
      vertex -0.1546020906725474 27 -8.926878656832729
    endloop
  endfacet
  facet normal 0 -1 0
    outer loop
      vertex -0.17638425286967102 27 -8.8942793473652
      vertex -0.1546020906725474 27 -8.926878656832729
      vertex -0.18079785862468867 27 -8.885511018686056
    endloop
  endfacet
  facet normal 0 -1 0
    outer loop
      vertex -0.17638425286967102 27 -8.8942793473652
      vertex -0.1715457220000544 27 -8.902820548838646
      vertex -0.1546020906725474 27 -8.926878656832729
    endloop
  endfacet
  facet normal 0 -1 0
    outer loop
      vertex -0.18079785862468867 27 -8.885511018686056
      vertex -0.1546020906725474 27 -8.926878656832729
      vertex -0.18477590650225736 27 -8.876536686473019
    endloop
  endfacet
  facet normal 0 -1 0
    outer loop
      vertex -0.1546020906725474 27 -8.926878656832729
      vertex -0.14142135623730953 27 -8.94142135623731
      vertex -0.13431179096940368 27 -8.948190225070993
    endloop
  endfacet
  facet normal 0 -1 0
    outer loop
      vertex -0.1546020906725474 27 -8.926878656832729
      vertex -0.13431179096940368 27 -8.948190225070993
      vertex -0.12687865683272911 27 -8.954602090672548
    endloop
  endfacet
  facet normal 0 -1 0
    outer loop
      vertex -0.1546020906725474 27 -8.926878656832729
      vertex -0.12687865683272911 27 -8.954602090672548
      vertex -0.11913986089848667 27 -8.96064150629613
    endloop
  endfacet
  facet normal 0 -1 0
    outer loop
      vertex -0.11111404660392044 27 -8.96629392246051
      vertex -0.1546020906725474 27 -8.926878656832729
      vertex -0.11913986089848667 27 -8.96064150629613
    endloop
  endfacet
  facet normal 0 -1 0
    outer loop
      vertex -0.11111404660392044 27 -8.96629392246051
      vertex -0.10282054883864436 27 -8.971545722000055
      vertex -0.1546020906725474 27 -8.926878656832729
    endloop
  endfacet
  facet normal 0 -1 0
    outer loop
      vertex -0.1546020906725474 27 -8.926878656832729
      vertex -0.1978353019929562 27 -8.829346094891074
      vertex -0.1961570560806461 27 -8.839018064403227
    endloop
  endfacet
  facet normal 0 -1 0
    outer loop
      vertex -0.1546020906725474 27 -8.926878656832729
      vertex -0.19903694533443939 27 -8.819603428065912
      vertex -0.1978353019929562 27 -8.829346094891074
    endloop
  endfacet
  facet normal 0 -1 0
    outer loop
      vertex -0.08551101868605643 27 -8.980797858624689
      vertex -0.07653668647301796 27 -8.984775906502257
      vertex -0.1546020906725474 27 -8.926878656832729
    endloop
  endfacet
  facet normal 0 -1 0
    outer loop
      vertex -0.09427934736519954 27 -8.976384252869671
      vertex -0.08551101868605643 27 -8.980797858624689
      vertex -0.1546020906725474 27 -8.926878656832729
    endloop
  endfacet
  facet normal 0 -1 0
    outer loop
      vertex -0.07653668647301796 27 -8.984775906502257
      vertex -0.06737797067844402 27 -8.988308813036605
      vertex -0.1546020906725474 27 -8.926878656832729
    endloop
  endfacet
  facet normal 0 -1 0
    outer loop
      vertex -0.06737797067844402 27 -8.988308813036605
      vertex -0.058056935450892466 27 -8.991388067146442
      vertex -0.1546020906725474 27 -8.926878656832729
    endloop
  endfacet
  facet normal 0 -1 0
    outer loop
      vertex -0.058056935450892466 27 -8.991388067146442
      vertex -0.04859603598065278 27 -8.99400625063891
      vertex -0.1546020906725474 27 -8.926878656832729
    endloop
  endfacet
  facet normal 0 -1 0
    outer loop
      vertex -0.04859603598065278 27 -8.99400625063891
      vertex -0.03901806440322565 27 -8.996157056080646
      vertex -0.1546020906725474 27 -8.926878656832729
    endloop
  endfacet
  facet normal 0 -1 0
    outer loop
      vertex -0.03901806440322565 27 -8.996157056080646
      vertex -0.02934609489107235 27 -8.997835301992957
      vertex -0.1546020906725474 27 -8.926878656832729
    endloop
  endfacet
  facet normal 0 -1 0
    outer loop
      vertex -0.02934609489107235 27 -8.997835301992957
      vertex -0.019603428065912122 27 -8.99903694533444
      vertex -0.1546020906725474 27 -8.926878656832729
    endloop
  endfacet
  facet normal 0 -1 0
    outer loop
      vertex -0.019603428065912122 27 -8.99903694533444
      vertex -0.009813534865483604 27 -8.999759091241035
      vertex -0.1546020906725474 27 -8.926878656832729
    endloop
  endfacet
  facet normal 0 -1 0
    outer loop
      vertex -0.009813534865483604 27 -8.999759091241035
      vertex 0 27 -9
      vertex -0.1546020906725474 27 -8.926878656832729
    endloop
  endfacet
  facet normal 0 -1 0
    outer loop
      vertex -0.1546020906725474 27 -8.926878656832729
      vertex 0 27 -9
      vertex 0.009813534865483604 27 -8.999759091241035
    endloop
  endfacet
  facet normal 0 -1 0
    outer loop
      vertex -0.1546020906725474 27 -8.926878656832729
      vertex 0.009813534865483604 27 -8.999759091241035
      vertex 0.019603428065912122 27 -8.99903694533444
    endloop
  endfacet
  facet normal 0 -1 0
    outer loop
      vertex -0.1546020906725474 27 -8.926878656832729
      vertex 0.019603428065912122 27 -8.99903694533444
      vertex 0.02934609489107235 27 -8.997835301992957
    endloop
  endfacet
  facet normal 0 -1 0
    outer loop
      vertex -0.1546020906725474 27 -8.926878656832729
      vertex 0.02934609489107235 27 -8.997835301992957
      vertex 0.03901806440322565 27 -8.996157056080646
    endloop
  endfacet
  facet normal 0 -1 0
    outer loop
      vertex -0.1546020906725474 27 -8.926878656832729
      vertex 0.03901806440322565 27 -8.996157056080646
      vertex 0.04859603598065278 27 -8.99400625063891
    endloop
  endfacet
  facet normal 0 -1 0
    outer loop
      vertex -0.1546020906725474 27 -8.926878656832729
      vertex 0.04859603598065278 27 -8.99400625063891
      vertex 0.058056935450892466 27 -8.991388067146442
    endloop
  endfacet
  facet normal 0 -1 0
    outer loop
      vertex -0.1546020906725474 27 -8.926878656832729
      vertex 0.058056935450892466 27 -8.991388067146442
      vertex 0.06737797067844402 27 -8.988308813036605
    endloop
  endfacet
  facet normal 0 -1 0
    outer loop
      vertex -0.1546020906725474 27 -8.926878656832729
      vertex 0.06737797067844402 27 -8.988308813036605
      vertex 0.07653668647301796 27 -8.984775906502257
    endloop
  endfacet
  facet normal -0.893224301195539 0 -0.4496113296545596
    outer loop
      vertex -0.17638425286967102 27 -8.8942793473652
      vertex -0.18079785862468867 27 -8.885511018686056
      vertex -0.17638425286967102 30 -8.8942793473652
    endloop
  endfacet
  facet normal -0.9142097557035188 0 -0.40524131400501656
    outer loop
      vertex -0.18079785862468867 27 -8.885511018686056
      vertex -0.18477590650225736 27 -8.876536686473019
      vertex -0.18079785862468867 30 -8.885511018686056
    endloop
  endfacet
  facet normal -0.9329927988347282 0 -0.359895036535016
    outer loop
      vertex -0.18477590650225736 27 -8.876536686473019
      vertex -0.18830881303660418 27 -8.867377970678445
      vertex -0.18830881303660418 30 -8.867377970678445
    endloop
  endfacet
  facet normal -0.8175848131516347 0 -0.575808191417773
    outer loop
      vertex -0.16629392246050906 27 -8.91111404660392
      vertex -0.16629392246050906 30 -8.91111404660392
      vertex -0.160641506296129 27 -8.919139860898488
    endloop
  endfacet
  facet normal -0.7572088465065372 0 -0.6531728429537157
    outer loop
      vertex -0.14819022507099183 27 -8.934311790969405
      vertex -0.1546020906725474 27 -8.926878656832729
      vertex -0.14819022507099183 30 -8.934311790969405
    endloop
  endfacet
  facet normal -0.7883464276265502 0 -0.6152315905806988
    outer loop
      vertex -0.1546020906725474 27 -8.926878656832729
      vertex -0.160641506296129 27 -8.919139860898488
      vertex -0.160641506296129 30 -8.919139860898488
    endloop
  endfacet
  facet normal -0.8448535652496592 0 -0.5349976198871728
    outer loop
      vertex -0.16629392246050906 27 -8.91111404660392
      vertex -0.1715457220000544 27 -8.902820548838646
      vertex -0.16629392246050906 30 -8.91111404660392
    endloop
  endfacet
  facet normal -0.8700869911087195 0 -0.4928981922297698
    outer loop
      vertex -0.17638425286967102 27 -8.8942793473652
      vertex -0.17638425286967102 30 -8.8942793473652
      vertex -0.1715457220000544 27 -8.902820548838646
    endloop
  endfacet
  facet normal -0.6895405447371199 0 -0.7242470829514165
    outer loop
      vertex -0.14142135623730953 27 -8.94142135623731
      vertex -0.13431179096940368 30 -8.948190225070993
      vertex -0.13431179096940368 27 -8.948190225070993
    endloop
  endfacet
  facet normal -0.7242470829514365 0 -0.689540544737099
    outer loop
      vertex -0.14819022507099183 27 -8.934311790969405
      vertex -0.14819022507099183 30 -8.934311790969405
      vertex -0.14142135623730953 27 -8.94142135623731
    endloop
  endfacet
  facet normal -0.6531728429537335 0 -0.7572088465065219
    outer loop
      vertex -0.13431179096940368 27 -8.948190225070993
      vertex -0.12687865683272911 30 -8.954602090672548
      vertex -0.12687865683272911 27 -8.954602090672548
    endloop
  endfacet
  facet normal -0.615231590580604 0 -0.7883464276266242
    outer loop
      vertex -0.12687865683272911 27 -8.954602090672548
      vertex -0.12687865683272911 30 -8.954602090672548
      vertex -0.11913986089848667 27 -8.96064150629613
    endloop
  endfacet
  facet normal -0.9637760657954377 0 -0.2667127574749064
    outer loop
      vertex -0.19138806714644177 27 -8.858056935450893
      vertex -0.1940062506389088 27 -8.848596035980654
      vertex -0.19138806714644177 30 -8.858056935450893
    endloop
  endfacet
  facet normal -0.9757021300385265 0 -0.21910124015687948
    outer loop
      vertex -0.1940062506389088 27 -8.848596035980654
      vertex -0.1961570560806461 27 -8.839018064403227
      vertex -0.1961570560806461 30 -8.839018064403227
    endloop
  endfacet
  facet normal -0.9852776423889408 0 -0.17096188876030344
    outer loop
      vertex -0.1961570560806461 27 -8.839018064403227
      vertex -0.1978353019929562 27 -8.829346094891074
      vertex -0.1961570560806461 30 -8.839018064403227
    endloop
  endfacet
  facet normal -0.9924795345987119 0 -0.12241067519920057
    outer loop
      vertex -0.1978353019929562 27 -8.829346094891074
      vertex -0.19903694533443939 27 -8.819603428065912
      vertex -0.19903694533443939 30 -8.819603428065912
    endloop
  endfacet
  facet normal -0.9495281805930457 0 -0.3136817403988642
    outer loop
      vertex -0.19138806714644177 27 -8.858056935450893
      vertex -0.19138806714644177 30 -8.858056935450893
      vertex -0.18830881303660418 27 -8.867377970678445
    endloop
  endfacet
  facet normal -0.5758081914178895 0 -0.8175848131515526
    outer loop
      vertex -0.11111404660392044 27 -8.96629392246051
      vertex -0.11913986089848667 27 -8.96064150629613
      vertex -0.11111404660392044 30 -8.96629392246051
    endloop
  endfacet
  facet normal -0.5349976198870813 0 -0.8448535652497172
    outer loop
      vertex -0.11111404660392044 27 -8.96629392246051
      vertex -0.10282054883864436 30 -8.971545722000055
      vertex -0.10282054883864436 27 -8.971545722000055
    endloop
  endfacet
  facet normal -0.449611329654574 0 -0.8932243011955318
    outer loop
      vertex -0.09427934736519954 27 -8.976384252869671
      vertex -0.08551101868605643 30 -8.980797858624689
      vertex -0.08551101868605643 27 -8.980797858624689
    endloop
  endfacet
  facet normal -0.49289819222975073 0 -0.8700869911087302
    outer loop
      vertex -0.10282054883864436 27 -8.971545722000055
      vertex -0.10282054883864436 30 -8.971545722000055
      vertex -0.09427934736519954 27 -8.976384252869671
    endloop
  endfacet
  facet normal -0.40524131400498387 0 -0.9142097557035334
    outer loop
      vertex -0.08551101868605643 27 -8.980797858624689
      vertex -0.08551101868605643 30 -8.980797858624689
      vertex -0.07653668647301796 27 -8.984775906502257
    endloop
  endfacet
  facet normal -0.35989503653508537 0 -0.9329927988347014
    outer loop
      vertex -0.07653668647301796 27 -8.984775906502257
      vertex -0.07653668647301796 30 -8.984775906502257
      vertex -0.06737797067844402 27 -8.988308813036605
    endloop
  endfacet
  facet normal -0.31368174039881425 0 -0.9495281805930621
    outer loop
      vertex -0.06737797067844402 27 -8.988308813036605
      vertex -0.058056935450892466 30 -8.991388067146442
      vertex -0.058056935450892466 27 -8.991388067146442
    endloop
  endfacet
  facet normal -0.2667127574749389 0 -0.9637760657954287
    outer loop
      vertex -0.058056935450892466 27 -8.991388067146442
      vertex -0.058056935450892466 30 -8.991388067146442
      vertex -0.04859603598065278 27 -8.99400625063891
    endloop
  endfacet
  facet normal -0.21910124015681595 0 -0.9757021300385407
    outer loop
      vertex -0.04859603598065278 27 -8.99400625063891
      vertex -0.03901806440322565 30 -8.996157056080646
      vertex -0.03901806440322565 27 -8.996157056080646
    endloop
  endfacet
  facet normal -0.17096188876039248 0 -0.9852776423889255
    outer loop
      vertex -0.03901806440322565 27 -8.996157056080646
      vertex -0.02934609489107235 30 -8.997835301992957
      vertex -0.02934609489107235 27 -8.997835301992957
    endloop
  endfacet
  facet normal -0.12241067519921846 0 -0.9924795345987096
    outer loop
      vertex -0.02934609489107235 27 -8.997835301992957
      vertex -0.02934609489107235 30 -8.997835301992957
      vertex -0.019603428065912122 27 -8.99903694533444
    endloop
  endfacet
  facet normal -0.07356456359964882 0 -0.9972904566786917
    outer loop
      vertex -0.019603428065912122 27 -8.99903694533444
      vertex -0.019603428065912122 30 -8.99903694533444
      vertex -0.009813534865483604 27 -8.999759091241035
    endloop
  endfacet
  facet normal -0.024541228522835176 0 -0.9996988186962061
    outer loop
      vertex -0.009813534865483604 27 -8.999759091241035
      vertex 0 30 -9
      vertex 0 27 -9
    endloop
  endfacet
  facet normal -0.893224301195539 0 -0.4496113296545596
    outer loop
      vertex -0.18079785862468867 27 -8.885511018686056
      vertex -0.18079785862468867 30 -8.885511018686056
      vertex -0.17638425286967102 30 -8.8942793473652
    endloop
  endfacet
  facet normal -0.9142097557035188 0 -0.40524131400501656
    outer loop
      vertex -0.18477590650225736 27 -8.876536686473019
      vertex -0.18477590650225736 30 -8.876536686473019
      vertex -0.18079785862468867 30 -8.885511018686056
    endloop
  endfacet
  facet normal -0.9329927988347282 0 -0.359895036535016
    outer loop
      vertex -0.18477590650225736 27 -8.876536686473019
      vertex -0.18830881303660418 30 -8.867377970678445
      vertex -0.18477590650225736 30 -8.876536686473019
    endloop
  endfacet
  facet normal -0.615231590580604 0 -0.7883464276266242
    outer loop
      vertex -0.11913986089848667 27 -8.96064150629613
      vertex -0.12687865683272911 30 -8.954602090672548
      vertex -0.11913986089848667 30 -8.96064150629613
    endloop
  endfacet
  facet normal -0.8175848131516347 0 -0.575808191417773
    outer loop
      vertex -0.160641506296129 27 -8.919139860898488
      vertex -0.16629392246050906 30 -8.91111404660392
      vertex -0.160641506296129 30 -8.919139860898488
    endloop
  endfacet
  facet normal -0.7572088465065372 0 -0.6531728429537157
    outer loop
      vertex -0.1546020906725474 27 -8.926878656832729
      vertex -0.1546020906725474 30 -8.926878656832729
      vertex -0.14819022507099183 30 -8.934311790969405
    endloop
  endfacet
  facet normal -0.7883464276265502 0 -0.6152315905806988
    outer loop
      vertex -0.1546020906725474 27 -8.926878656832729
      vertex -0.160641506296129 30 -8.919139860898488
      vertex -0.1546020906725474 30 -8.926878656832729
    endloop
  endfacet
  facet normal -0.8700869911087195 0 -0.4928981922297698
    outer loop
      vertex -0.1715457220000544 27 -8.902820548838646
      vertex -0.17638425286967102 30 -8.8942793473652
      vertex -0.1715457220000544 30 -8.902820548838646
    endloop
  endfacet
  facet normal -0.8448535652496592 0 -0.5349976198871728
    outer loop
      vertex -0.1715457220000544 27 -8.902820548838646
      vertex -0.1715457220000544 30 -8.902820548838646
      vertex -0.16629392246050906 30 -8.91111404660392
    endloop
  endfacet
  facet normal -0.7242470829514365 0 -0.689540544737099
    outer loop
      vertex -0.14142135623730953 27 -8.94142135623731
      vertex -0.14819022507099183 30 -8.934311790969405
      vertex -0.14142135623730953 30 -8.94142135623731
    endloop
  endfacet
  facet normal -0.6895405447371199 0 -0.7242470829514165
    outer loop
      vertex -0.14142135623730953 27 -8.94142135623731
      vertex -0.14142135623730953 30 -8.94142135623731
      vertex -0.13431179096940368 30 -8.948190225070993
    endloop
  endfacet
  facet normal -0.6531728429537335 0 -0.7572088465065219
    outer loop
      vertex -0.13431179096940368 27 -8.948190225070993
      vertex -0.13431179096940368 30 -8.948190225070993
      vertex -0.12687865683272911 30 -8.954602090672548
    endloop
  endfacet
  facet normal -0.9637760657954377 0 -0.2667127574749064
    outer loop
      vertex -0.1940062506389088 27 -8.848596035980654
      vertex -0.1940062506389088 30 -8.848596035980654
      vertex -0.19138806714644177 30 -8.858056935450893
    endloop
  endfacet
  facet normal -0.9757021300385265 0 -0.21910124015687948
    outer loop
      vertex -0.1940062506389088 27 -8.848596035980654
      vertex -0.1961570560806461 30 -8.839018064403227
      vertex -0.1940062506389088 30 -8.848596035980654
    endloop
  endfacet
  facet normal -0.9852776423889408 0 -0.17096188876030344
    outer loop
      vertex -0.1978353019929562 27 -8.829346094891074
      vertex -0.1978353019929562 30 -8.829346094891074
      vertex -0.1961570560806461 30 -8.839018064403227
    endloop
  endfacet
  facet normal -0.9924795345987119 0 -0.12241067519920057
    outer loop
      vertex -0.1978353019929562 27 -8.829346094891074
      vertex -0.19903694533443939 30 -8.819603428065912
      vertex -0.1978353019929562 30 -8.829346094891074
    endloop
  endfacet
  facet normal -0.9495281805930457 0 -0.3136817403988642
    outer loop
      vertex -0.18830881303660418 27 -8.867377970678445
      vertex -0.19138806714644177 30 -8.858056935450893
      vertex -0.18830881303660418 30 -8.867377970678445
    endloop
  endfacet
  facet normal -0.5349976198870813 0 -0.8448535652497172
    outer loop
      vertex -0.11111404660392044 27 -8.96629392246051
      vertex -0.11111404660392044 30 -8.96629392246051
      vertex -0.10282054883864436 30 -8.971545722000055
    endloop
  endfacet
  facet normal -0.5758081914178895 0 -0.8175848131515526
    outer loop
      vertex -0.11913986089848667 27 -8.96064150629613
      vertex -0.11913986089848667 30 -8.96064150629613
      vertex -0.11111404660392044 30 -8.96629392246051
    endloop
  endfacet
  facet normal -0.449611329654574 0 -0.8932243011955318
    outer loop
      vertex -0.09427934736519954 27 -8.976384252869671
      vertex -0.09427934736519954 30 -8.976384252869671
      vertex -0.08551101868605643 30 -8.980797858624689
    endloop
  endfacet
  facet normal -0.49289819222975073 0 -0.8700869911087302
    outer loop
      vertex -0.09427934736519954 27 -8.976384252869671
      vertex -0.10282054883864436 30 -8.971545722000055
      vertex -0.09427934736519954 30 -8.976384252869671
    endloop
  endfacet
  facet normal -0.40524131400498387 0 -0.9142097557035334
    outer loop
      vertex -0.07653668647301796 27 -8.984775906502257
      vertex -0.08551101868605643 30 -8.980797858624689
      vertex -0.07653668647301796 30 -8.984775906502257
    endloop
  endfacet
  facet normal -0.31368174039881425 0 -0.9495281805930621
    outer loop
      vertex -0.06737797067844402 27 -8.988308813036605
      vertex -0.06737797067844402 30 -8.988308813036605
      vertex -0.058056935450892466 30 -8.991388067146442
    endloop
  endfacet
  facet normal -0.35989503653508537 0 -0.9329927988347014
    outer loop
      vertex -0.06737797067844402 27 -8.988308813036605
      vertex -0.07653668647301796 30 -8.984775906502257
      vertex -0.06737797067844402 30 -8.988308813036605
    endloop
  endfacet
  facet normal -0.2667127574749389 0 -0.9637760657954287
    outer loop
      vertex -0.04859603598065278 27 -8.99400625063891
      vertex -0.058056935450892466 30 -8.991388067146442
      vertex -0.04859603598065278 30 -8.99400625063891
    endloop
  endfacet
  facet normal -0.21910124015681595 0 -0.9757021300385407
    outer loop
      vertex -0.04859603598065278 27 -8.99400625063891
      vertex -0.04859603598065278 30 -8.99400625063891
      vertex -0.03901806440322565 30 -8.996157056080646
    endloop
  endfacet
  facet normal -0.17096188876039248 0 -0.9852776423889255
    outer loop
      vertex -0.03901806440322565 27 -8.996157056080646
      vertex -0.03901806440322565 30 -8.996157056080646
      vertex -0.02934609489107235 30 -8.997835301992957
    endloop
  endfacet
  facet normal -0.12241067519921846 0 -0.9924795345987096
    outer loop
      vertex -0.019603428065912122 27 -8.99903694533444
      vertex -0.02934609489107235 30 -8.997835301992957
      vertex -0.019603428065912122 30 -8.99903694533444
    endloop
  endfacet
  facet normal -0.07356456359964882 0 -0.9972904566786917
    outer loop
      vertex -0.009813534865483604 27 -8.999759091241035
      vertex -0.019603428065912122 30 -8.99903694533444
      vertex -0.009813534865483604 30 -8.999759091241035
    endloop
  endfacet
  facet normal -0.024541228522835176 0 -0.9996988186962061
    outer loop
      vertex -0.009813534865483604 27 -8.999759091241035
      vertex -0.009813534865483604 30 -8.999759091241035
      vertex 0 30 -9
    endloop
  endfacet
  facet normal 0 1 0
    outer loop
      vertex -0.18079785862468867 30 -8.885511018686056
      vertex -0.18477590650225736 30 -8.876536686473019
      vertex -0.16629392246050906 30 -8.91111404660392
    endloop
  endfacet
  facet normal 0 1 0
    outer loop
      vertex -0.18477590650225736 30 -8.876536686473019
      vertex -0.18830881303660418 30 -8.867377970678445
      vertex -0.16629392246050906 30 -8.91111404660392
    endloop
  endfacet
  facet normal 0 1 0
    outer loop
      vertex -0.19138806714644177 30 -8.858056935450893
      vertex -0.16629392246050906 30 -8.91111404660392
      vertex -0.18830881303660418 30 -8.867377970678445
    endloop
  endfacet
  facet normal 0 1 0
    outer loop
      vertex -0.19138806714644177 30 -8.858056935450893
      vertex -0.1940062506389088 30 -8.848596035980654
      vertex -0.16629392246050906 30 -8.91111404660392
    endloop
  endfacet
  facet normal 0 1 0
    outer loop
      vertex -0.16629392246050906 30 -8.91111404660392
      vertex -0.13431179096940368 30 -8.948190225070993
      vertex -0.14142135623730953 30 -8.94142135623731
    endloop
  endfacet
  facet normal 0 1 0
    outer loop
      vertex -0.16629392246050906 30 -8.91111404660392
      vertex -0.14142135623730953 30 -8.94142135623731
      vertex -0.14819022507099183 30 -8.934311790969405
    endloop
  endfacet
  facet normal 0 1 0
    outer loop
      vertex -0.16629392246050906 30 -8.91111404660392
      vertex -0.14819022507099183 30 -8.934311790969405
      vertex -0.1546020906725474 30 -8.926878656832729
    endloop
  endfacet
  facet normal 0 1 0
    outer loop
      vertex -0.16629392246050906 30 -8.91111404660392
      vertex -0.1546020906725474 30 -8.926878656832729
      vertex -0.160641506296129 30 -8.919139860898488
    endloop
  endfacet
  facet normal 0 1 0
    outer loop
      vertex -0.17638425286967102 30 -8.8942793473652
      vertex -0.16629392246050906 30 -8.91111404660392
      vertex -0.1715457220000544 30 -8.902820548838646
    endloop
  endfacet
  facet normal 0 1 0
    outer loop
      vertex -0.17638425286967102 30 -8.8942793473652
      vertex -0.18079785862468867 30 -8.885511018686056
      vertex -0.16629392246050906 30 -8.91111404660392
    endloop
  endfacet
  facet normal 0 1 0
    outer loop
      vertex -0.16629392246050906 30 -8.91111404660392
      vertex -0.12687865683272911 30 -8.954602090672548
      vertex -0.13431179096940368 30 -8.948190225070993
    endloop
  endfacet
  facet normal 0 1 0
    outer loop
      vertex -0.16629392246050906 30 -8.91111404660392
      vertex -0.11913986089848667 30 -8.96064150629613
      vertex -0.12687865683272911 30 -8.954602090672548
    endloop
  endfacet
  facet normal 0 1 0
    outer loop
      vertex -0.11111404660392044 30 -8.96629392246051
      vertex -0.11913986089848667 30 -8.96064150629613
      vertex -0.16629392246050906 30 -8.91111404660392
    endloop
  endfacet
  facet normal 0 1 0
    outer loop
      vertex -0.10282054883864436 30 -8.971545722000055
      vertex -0.16629392246050906 30 -8.91111404660392
      vertex -0.09427934736519954 30 -8.976384252869671
    endloop
  endfacet
  facet normal 0 1 0
    outer loop
      vertex -0.11111404660392044 30 -8.96629392246051
      vertex -0.16629392246050906 30 -8.91111404660392
      vertex -0.10282054883864436 30 -8.971545722000055
    endloop
  endfacet
  facet normal 0 1 0
    outer loop
      vertex -0.16629392246050906 30 -8.91111404660392
      vertex -0.1940062506389088 30 -8.848596035980654
      vertex -0.1961570560806461 30 -8.839018064403227
    endloop
  endfacet
  facet normal 0 1 0
    outer loop
      vertex -0.16629392246050906 30 -8.91111404660392
      vertex -0.1961570560806461 30 -8.839018064403227
      vertex -0.1978353019929562 30 -8.829346094891074
    endloop
  endfacet
  facet normal 0 1 0
    outer loop
      vertex -0.16629392246050906 30 -8.91111404660392
      vertex -0.1978353019929562 30 -8.829346094891074
      vertex -0.19903694533443939 30 -8.819603428065912
    endloop
  endfacet
  facet normal 0 1 0
    outer loop
      vertex -0.08551101868605643 30 -8.980797858624689
      vertex -0.16629392246050906 30 -8.91111404660392
      vertex -0.07653668647301796 30 -8.984775906502257
    endloop
  endfacet
  facet normal 0 1 0
    outer loop
      vertex -0.07653668647301796 30 -8.984775906502257
      vertex -0.16629392246050906 30 -8.91111404660392
      vertex -0.06737797067844402 30 -8.988308813036605
    endloop
  endfacet
  facet normal 0 1 0
    outer loop
      vertex -0.06737797067844402 30 -8.988308813036605
      vertex -0.16629392246050906 30 -8.91111404660392
      vertex -0.058056935450892466 30 -8.991388067146442
    endloop
  endfacet
  facet normal 0 1 0
    outer loop
      vertex -0.058056935450892466 30 -8.991388067146442
      vertex -0.16629392246050906 30 -8.91111404660392
      vertex -0.04859603598065278 30 -8.99400625063891
    endloop
  endfacet
  facet normal 0 1 0
    outer loop
      vertex -0.04859603598065278 30 -8.99400625063891
      vertex -0.16629392246050906 30 -8.91111404660392
      vertex -0.03901806440322565 30 -8.996157056080646
    endloop
  endfacet
  facet normal 0 1 0
    outer loop
      vertex -0.03901806440322565 30 -8.996157056080646
      vertex -0.16629392246050906 30 -8.91111404660392
      vertex -0.02934609489107235 30 -8.997835301992957
    endloop
  endfacet
  facet normal 0 1 0
    outer loop
      vertex -0.02934609489107235 30 -8.997835301992957
      vertex -0.16629392246050906 30 -8.91111404660392
      vertex -0.019603428065912122 30 -8.99903694533444
    endloop
  endfacet
  facet normal 0 1 0
    outer loop
      vertex -0.019603428065912122 30 -8.99903694533444
      vertex -0.16629392246050906 30 -8.91111404660392
      vertex -0.009813534865483604 30 -8.999759091241035
    endloop
  endfacet
  facet normal 0 1 0
    outer loop
      vertex -0.009813534865483604 30 -8.999759091241035
      vertex -0.16629392246050906 30 -8.91111404660392
      vertex 0 30 -9
    endloop
  endfacet
  facet normal 0 1 0
    outer loop
      vertex -0.09427934736519954 30 -8.976384252869671
      vertex -0.16629392246050906 30 -8.91111404660392
      vertex -0.08551101868605643 30 -8.980797858624689
    endloop
  endfacet
  facet normal 0 1 0
    outer loop
      vertex -0.16629392246050906 30 -8.91111404660392
      vertex 0.009813534865483604 30 -8.999759091241035
      vertex 0 30 -9
    endloop
  endfacet
  facet normal 0 1 0
    outer loop
      vertex -0.16629392246050906 30 -8.91111404660392
      vertex 0.019603428065912122 30 -8.99903694533444
      vertex 0.009813534865483604 30 -8.999759091241035
    endloop
  endfacet
  facet normal 0 1 0
    outer loop
      vertex -0.16629392246050906 30 -8.91111404660392
      vertex 0.02934609489107235 30 -8.997835301992957
      vertex 0.019603428065912122 30 -8.99903694533444
    endloop
  endfacet
  facet normal 0 1 0
    outer loop
      vertex -0.16629392246050906 30 -8.91111404660392
      vertex 0.03901806440322565 30 -8.996157056080646
      vertex 0.02934609489107235 30 -8.997835301992957
    endloop
  endfacet
  facet normal 0 1 0
    outer loop
      vertex -0.16629392246050906 30 -8.91111404660392
      vertex 0.04859603598065278 30 -8.99400625063891
      vertex 0.03901806440322565 30 -8.996157056080646
    endloop
  endfacet
  facet normal 0 1 0
    outer loop
      vertex -0.16629392246050906 30 -8.91111404660392
      vertex 0.058056935450892466 30 -8.991388067146442
      vertex 0.04859603598065278 30 -8.99400625063891
    endloop
  endfacet
  facet normal 0 1 0
    outer loop
      vertex -0.16629392246050906 30 -8.91111404660392
      vertex 0.06737797067844402 30 -8.988308813036605
      vertex 0.058056935450892466 30 -8.991388067146442
    endloop
  endfacet
  facet normal 0 1 0
    outer loop
      vertex -0.16629392246050906 30 -8.91111404660392
      vertex 0.07653668647301796 30 -8.984775906502257
      vertex 0.06737797067844402 30 -8.988308813036605
    endloop
  endfacet
  facet normal 0 1 0
    outer loop
      vertex -0.16629392246050906 30 -8.91111404660392
      vertex 0.08551101868605643 30 -8.980797858624689
      vertex 0.07653668647301796 30 -8.984775906502257
    endloop
  endfacet
  facet normal 0 -1 0
    outer loop
      vertex -0.1546020906725474 27 -8.926878656832729
      vertex -1 27 -0.2
      vertex -0.19903694533443939 27 -8.819603428065912
    endloop
  endfacet
  facet normal -0.995710378729498 0 -0.09252481661889311
    outer loop
      vertex -0.19903694533443939 27 -8.819603428065912
      vertex -1 27 -0.2
      vertex -0.19903694533443939 30 -8.819603428065912
    endloop
  endfacet
  facet normal 0 1 0
    outer loop
      vertex -0.16629392246050906 30 -8.91111404660392
      vertex -0.19903694533443939 30 -8.819603428065912
      vertex -1 30 -0.2
    endloop
  endfacet
  facet normal 0 -1 0
    outer loop
      vertex -0.1546020906725474 27 -8.926878656832729
      vertex -1 27 0
      vertex -1 27 -0.2
    endloop
  endfacet
  facet normal 0 -1 0
    outer loop
      vertex -0.1546020906725474 27 -8.926878656832729
      vertex 1 27 0
      vertex -1 27 0
    endloop
  endfacet
  facet normal -0.995710378729498 0 -0.09252481661889311
    outer loop
      vertex -0.19903694533443939 30 -8.819603428065912
      vertex -1 27 -0.2
      vertex -1 30 -0.2
    endloop
  endfacet
  facet normal 0 1 0
    outer loop
      vertex -0.16629392246050906 30 -8.91111404660392
      vertex -1 30 -0.2
      vertex -1 30 0
    endloop
  endfacet
  facet normal 0 1 0
    outer loop
      vertex -0.16629392246050906 30 -8.91111404660392
      vertex -1 30 0
      vertex 1 30 0
    endloop
  endfacet
  facet normal -1 0 0
    outer loop
      vertex -1 27 -0.2
      vertex -1 27 0
      vertex -1 30 0
    endloop
  endfacet
  facet normal -1 0 0
    outer loop
      vertex -1 27 -0.2
      vertex -1 30 0
      vertex -1 30 -0.2
    endloop
  endfacet
  facet normal 0 -1 0
    outer loop
      vertex -0.1546020906725474 27 -8.926878656832729
      vertex 0.07653668647301796 27 -8.984775906502257
      vertex 0.08551101868605643 27 -8.980797858624689
    endloop
  endfacet
  facet normal 0 -1 0
    outer loop
      vertex -0.1546020906725474 27 -8.926878656832729
      vertex 0.08551101868605643 27 -8.980797858624689
      vertex 0.09427934736519954 27 -8.976384252869671
    endloop
  endfacet
  facet normal 0 -1 0
    outer loop
      vertex -0.1546020906725474 27 -8.926878656832729
      vertex 0.09427934736519954 27 -8.976384252869671
      vertex 0.10282054883864436 27 -8.971545722000055
    endloop
  endfacet
  facet normal 0 -1 0
    outer loop
      vertex -0.1546020906725474 27 -8.926878656832729
      vertex 0.10282054883864436 27 -8.971545722000055
      vertex 0.11111404660392044 27 -8.96629392246051
    endloop
  endfacet
  facet normal 0 -1 0
    outer loop
      vertex -0.1546020906725474 27 -8.926878656832729
      vertex 0.11111404660392044 27 -8.96629392246051
      vertex 0.11913986089848667 27 -8.96064150629613
    endloop
  endfacet
  facet normal 0 -1 0
    outer loop
      vertex -0.1546020906725474 27 -8.926878656832729
      vertex 0.11913986089848667 27 -8.96064150629613
      vertex 0.12687865683272911 27 -8.954602090672548
    endloop
  endfacet
  facet normal 0 -1 0
    outer loop
      vertex -0.1546020906725474 27 -8.926878656832729
      vertex 0.12687865683272911 27 -8.954602090672548
      vertex 0.13431179096940368 27 -8.948190225070993
    endloop
  endfacet
  facet normal 0 -1 0
    outer loop
      vertex -0.1546020906725474 27 -8.926878656832729
      vertex 0.13431179096940368 27 -8.948190225070993
      vertex 0.14142135623730953 27 -8.94142135623731
    endloop
  endfacet
  facet normal 0 -1 0
    outer loop
      vertex -0.1546020906725474 27 -8.926878656832729
      vertex 0.14142135623730953 27 -8.94142135623731
      vertex 0.14819022507099183 27 -8.934311790969405
    endloop
  endfacet
  facet normal 0 -1 0
    outer loop
      vertex -0.1546020906725474 27 -8.926878656832729
      vertex 0.14819022507099183 27 -8.934311790969405
      vertex 0.1546020906725474 27 -8.926878656832729
    endloop
  endfacet
  facet normal 0 -1 0
    outer loop
      vertex -0.1546020906725474 27 -8.926878656832729
      vertex 0.1546020906725474 27 -8.926878656832729
      vertex 0.160641506296129 27 -8.919139860898488
    endloop
  endfacet
  facet normal 0 -1 0
    outer loop
      vertex -0.1546020906725474 27 -8.926878656832729
      vertex 0.160641506296129 27 -8.919139860898488
      vertex 0.16629392246050906 27 -8.91111404660392
    endloop
  endfacet
  facet normal 0 -1 0
    outer loop
      vertex -0.1546020906725474 27 -8.926878656832729
      vertex 0.16629392246050906 27 -8.91111404660392
      vertex 0.1715457220000544 27 -8.902820548838646
    endloop
  endfacet
  facet normal 0 -1 0
    outer loop
      vertex -0.1546020906725474 27 -8.926878656832729
      vertex 0.1715457220000544 27 -8.902820548838646
      vertex 0.17638425286967102 27 -8.8942793473652
    endloop
  endfacet
  facet normal 0 -1 0
    outer loop
      vertex -0.1546020906725474 27 -8.926878656832729
      vertex 0.17638425286967102 27 -8.8942793473652
      vertex 0.18079785862468867 27 -8.885511018686056
    endloop
  endfacet
  facet normal 0 -1 0
    outer loop
      vertex -0.1546020906725474 27 -8.926878656832729
      vertex 0.18079785862468867 27 -8.885511018686056
      vertex 0.18477590650225736 27 -8.876536686473019
    endloop
  endfacet
  facet normal 0 -1 0
    outer loop
      vertex -0.1546020906725474 27 -8.926878656832729
      vertex 0.18477590650225736 27 -8.876536686473019
      vertex 0.18830881303660418 27 -8.867377970678445
    endloop
  endfacet
  facet normal 0 -1 0
    outer loop
      vertex -0.1546020906725474 27 -8.926878656832729
      vertex 0.18830881303660418 27 -8.867377970678445
      vertex 0.19138806714644177 27 -8.858056935450893
    endloop
  endfacet
  facet normal 0 -1 0
    outer loop
      vertex -0.1546020906725474 27 -8.926878656832729
      vertex 0.19138806714644177 27 -8.858056935450893
      vertex 0.1940062506389088 27 -8.848596035980654
    endloop
  endfacet
  facet normal 0 -1 0
    outer loop
      vertex -0.1546020906725474 27 -8.926878656832729
      vertex 0.1940062506389088 27 -8.848596035980654
      vertex 0.1961570560806461 27 -8.839018064403227
    endloop
  endfacet
  facet normal 0 -1 0
    outer loop
      vertex -0.1546020906725474 27 -8.926878656832729
      vertex 0.1961570560806461 27 -8.839018064403227
      vertex 0.1978353019929562 27 -8.829346094891074
    endloop
  endfacet
  facet normal 0 -1 0
    outer loop
      vertex -0.1546020906725474 27 -8.926878656832729
      vertex 0.1978353019929562 27 -8.829346094891074
      vertex 0.19903694533443939 27 -8.819603428065912
    endloop
  endfacet
  facet normal 0.024541228522835176 0 -0.9996988186962061
    outer loop
      vertex 0 27 -9
      vertex 0 30 -9
      vertex 0.009813534865483604 27 -8.999759091241035
    endloop
  endfacet
  facet normal 0.07356456359964882 0 -0.9972904566786917
    outer loop
      vertex 0.009813534865483604 27 -8.999759091241035
      vertex 0.019603428065912122 30 -8.99903694533444
      vertex 0.019603428065912122 27 -8.99903694533444
    endloop
  endfacet
  facet normal 0.12241067519921846 0 -0.9924795345987096
    outer loop
      vertex 0.019603428065912122 27 -8.99903694533444
      vertex 0.02934609489107235 30 -8.997835301992957
      vertex 0.02934609489107235 27 -8.997835301992957
    endloop
  endfacet
  facet normal 0.17096188876039248 0 -0.9852776423889255
    outer loop
      vertex 0.02934609489107235 27 -8.997835301992957
      vertex 0.02934609489107235 30 -8.997835301992957
      vertex 0.03901806440322565 27 -8.996157056080646
    endloop
  endfacet
  facet normal 0.21910124015681595 0 -0.9757021300385407
    outer loop
      vertex 0.03901806440322565 27 -8.996157056080646
      vertex 0.04859603598065278 30 -8.99400625063891
      vertex 0.04859603598065278 27 -8.99400625063891
    endloop
  endfacet
  facet normal 0.2667127574749389 0 -0.9637760657954287
    outer loop
      vertex 0.04859603598065278 27 -8.99400625063891
      vertex 0.04859603598065278 30 -8.99400625063891
      vertex 0.058056935450892466 27 -8.991388067146442
    endloop
  endfacet
  facet normal 0.31368174039881425 0 -0.9495281805930621
    outer loop
      vertex 0.058056935450892466 27 -8.991388067146442
      vertex 0.06737797067844402 30 -8.988308813036605
      vertex 0.06737797067844402 27 -8.988308813036605
    endloop
  endfacet
  facet normal 0.35989503653508537 0 -0.9329927988347014
    outer loop
      vertex 0.06737797067844402 27 -8.988308813036605
      vertex 0.06737797067844402 30 -8.988308813036605
      vertex 0.07653668647301796 27 -8.984775906502257
    endloop
  endfacet
  facet normal 0.40524131400498387 0 -0.9142097557035334
    outer loop
      vertex 0.07653668647301796 27 -8.984775906502257
      vertex 0.07653668647301796 30 -8.984775906502257
      vertex 0.08551101868605643 27 -8.980797858624689
    endloop
  endfacet
  facet normal 0.449611329654574 0 -0.8932243011955318
    outer loop
      vertex 0.08551101868605643 27 -8.980797858624689
      vertex 0.09427934736519954 30 -8.976384252869671
      vertex 0.09427934736519954 27 -8.976384252869671
    endloop
  endfacet
  facet normal 0.49289819222975073 0 -0.8700869911087302
    outer loop
      vertex 0.09427934736519954 27 -8.976384252869671
      vertex 0.09427934736519954 30 -8.976384252869671
      vertex 0.10282054883864436 27 -8.971545722000055
    endloop
  endfacet
  facet normal 0.5349976198870813 0 -0.8448535652497172
    outer loop
      vertex 0.10282054883864436 27 -8.971545722000055
      vertex 0.11111404660392044 30 -8.96629392246051
      vertex 0.11111404660392044 27 -8.96629392246051
    endloop
  endfacet
  facet normal 0.5758081914178895 0 -0.8175848131515526
    outer loop
      vertex 0.11111404660392044 27 -8.96629392246051
      vertex 0.11913986089848667 30 -8.96064150629613
      vertex 0.11913986089848667 27 -8.96064150629613
    endloop
  endfacet
  facet normal 0.615231590580604 0 -0.7883464276266242
    outer loop
      vertex 0.11913986089848667 27 -8.96064150629613
      vertex 0.11913986089848667 30 -8.96064150629613
      vertex 0.12687865683272911 27 -8.954602090672548
    endloop
  endfacet
  facet normal 0.6531728429537335 0 -0.7572088465065219
    outer loop
      vertex 0.12687865683272911 27 -8.954602090672548
      vertex 0.12687865683272911 30 -8.954602090672548
      vertex 0.13431179096940368 27 -8.948190225070993
    endloop
  endfacet
  facet normal 0.6895405447371199 0 -0.7242470829514165
    outer loop
      vertex 0.13431179096940368 27 -8.948190225070993
      vertex 0.13431179096940368 30 -8.948190225070993
      vertex 0.14142135623730953 27 -8.94142135623731
    endloop
  endfacet
  facet normal 0.7242470829514365 0 -0.689540544737099
    outer loop
      vertex 0.14142135623730953 27 -8.94142135623731
      vertex 0.14819022507099183 30 -8.934311790969405
      vertex 0.14819022507099183 27 -8.934311790969405
    endloop
  endfacet
  facet normal 0.7572088465065372 0 -0.6531728429537157
    outer loop
      vertex 0.14819022507099183 27 -8.934311790969405
      vertex 0.1546020906725474 30 -8.926878656832729
      vertex 0.1546020906725474 27 -8.926878656832729
    endloop
  endfacet
  facet normal 0.7883464276265502 0 -0.6152315905806988
    outer loop
      vertex 0.1546020906725474 27 -8.926878656832729
      vertex 0.1546020906725474 30 -8.926878656832729
      vertex 0.160641506296129 27 -8.919139860898488
    endloop
  endfacet
  facet normal 0.8175848131516347 0 -0.575808191417773
    outer loop
      vertex 0.160641506296129 27 -8.919139860898488
      vertex 0.160641506296129 30 -8.919139860898488
      vertex 0.16629392246050906 27 -8.91111404660392
    endloop
  endfacet
  facet normal 0.8448535652496592 0 -0.5349976198871728
    outer loop
      vertex 0.16629392246050906 27 -8.91111404660392
      vertex 0.1715457220000544 30 -8.902820548838646
      vertex 0.1715457220000544 27 -8.902820548838646
    endloop
  endfacet
  facet normal 0.8700869911087195 0 -0.4928981922297698
    outer loop
      vertex 0.1715457220000544 27 -8.902820548838646
      vertex 0.1715457220000544 30 -8.902820548838646
      vertex 0.17638425286967102 27 -8.8942793473652
    endloop
  endfacet
  facet normal 0.893224301195539 0 -0.4496113296545596
    outer loop
      vertex 0.17638425286967102 27 -8.8942793473652
      vertex 0.18079785862468867 30 -8.885511018686056
      vertex 0.18079785862468867 27 -8.885511018686056
    endloop
  endfacet
  facet normal 0.9142097557035188 0 -0.40524131400501656
    outer loop
      vertex 0.18079785862468867 27 -8.885511018686056
      vertex 0.18079785862468867 30 -8.885511018686056
      vertex 0.18477590650225736 27 -8.876536686473019
    endloop
  endfacet
  facet normal 0.9329927988347282 0 -0.359895036535016
    outer loop
      vertex 0.18477590650225736 27 -8.876536686473019
      vertex 0.18830881303660418 30 -8.867377970678445
      vertex 0.18830881303660418 27 -8.867377970678445
    endloop
  endfacet
  facet normal 0.9495281805930457 0 -0.3136817403988642
    outer loop
      vertex 0.18830881303660418 27 -8.867377970678445
      vertex 0.19138806714644177 30 -8.858056935450893
      vertex 0.19138806714644177 27 -8.858056935450893
    endloop
  endfacet
  facet normal 0.9637760657954377 0 -0.2667127574749064
    outer loop
      vertex 0.19138806714644177 27 -8.858056935450893
      vertex 0.19138806714644177 30 -8.858056935450893
      vertex 0.1940062506389088 27 -8.848596035980654
    endloop
  endfacet
  facet normal 0.9757021300385265 0 -0.21910124015687948
    outer loop
      vertex 0.1940062506389088 27 -8.848596035980654
      vertex 0.1940062506389088 30 -8.848596035980654
      vertex 0.1961570560806461 27 -8.839018064403227
    endloop
  endfacet
  facet normal 0.9852776423889408 0 -0.17096188876030344
    outer loop
      vertex 0.1961570560806461 27 -8.839018064403227
      vertex 0.1978353019929562 30 -8.829346094891074
      vertex 0.1978353019929562 27 -8.829346094891074
    endloop
  endfacet
  facet normal 0.9924795345987119 0 -0.12241067519920057
    outer loop
      vertex 0.1978353019929562 27 -8.829346094891074
      vertex 0.1978353019929562 30 -8.829346094891074
      vertex 0.19903694533443939 27 -8.819603428065912
    endloop
  endfacet
  facet normal 0.024541228522835176 0 -0.9996988186962061
    outer loop
      vertex 0.009813534865483604 27 -8.999759091241035
      vertex 0 30 -9
      vertex 0.009813534865483604 30 -8.999759091241035
    endloop
  endfacet
  facet normal 0.07356456359964882 0 -0.9972904566786917
    outer loop
      vertex 0.009813534865483604 27 -8.999759091241035
      vertex 0.009813534865483604 30 -8.999759091241035
      vertex 0.019603428065912122 30 -8.99903694533444
    endloop
  endfacet
  facet normal 0.12241067519921846 0 -0.9924795345987096
    outer loop
      vertex 0.019603428065912122 27 -8.99903694533444
      vertex 0.019603428065912122 30 -8.99903694533444
      vertex 0.02934609489107235 30 -8.997835301992957
    endloop
  endfacet
  facet normal 0.17096188876039248 0 -0.9852776423889255
    outer loop
      vertex 0.03901806440322565 27 -8.996157056080646
      vertex 0.02934609489107235 30 -8.997835301992957
      vertex 0.03901806440322565 30 -8.996157056080646
    endloop
  endfacet
  facet normal 0.21910124015681595 0 -0.9757021300385407
    outer loop
      vertex 0.03901806440322565 27 -8.996157056080646
      vertex 0.03901806440322565 30 -8.996157056080646
      vertex 0.04859603598065278 30 -8.99400625063891
    endloop
  endfacet
  facet normal 0.2667127574749389 0 -0.9637760657954287
    outer loop
      vertex 0.058056935450892466 27 -8.991388067146442
      vertex 0.04859603598065278 30 -8.99400625063891
      vertex 0.058056935450892466 30 -8.991388067146442
    endloop
  endfacet
  facet normal 0.31368174039881425 0 -0.9495281805930621
    outer loop
      vertex 0.058056935450892466 27 -8.991388067146442
      vertex 0.058056935450892466 30 -8.991388067146442
      vertex 0.06737797067844402 30 -8.988308813036605
    endloop
  endfacet
  facet normal 0.35989503653508537 0 -0.9329927988347014
    outer loop
      vertex 0.07653668647301796 27 -8.984775906502257
      vertex 0.06737797067844402 30 -8.988308813036605
      vertex 0.07653668647301796 30 -8.984775906502257
    endloop
  endfacet
  facet normal 0.40524131400498387 0 -0.9142097557035334
    outer loop
      vertex 0.08551101868605643 27 -8.980797858624689
      vertex 0.07653668647301796 30 -8.984775906502257
      vertex 0.08551101868605643 30 -8.980797858624689
    endloop
  endfacet
  facet normal 0.449611329654574 0 -0.8932243011955318
    outer loop
      vertex 0.08551101868605643 27 -8.980797858624689
      vertex 0.08551101868605643 30 -8.980797858624689
      vertex 0.09427934736519954 30 -8.976384252869671
    endloop
  endfacet
  facet normal 0.49289819222975073 0 -0.8700869911087302
    outer loop
      vertex 0.10282054883864436 27 -8.971545722000055
      vertex 0.09427934736519954 30 -8.976384252869671
      vertex 0.10282054883864436 30 -8.971545722000055
    endloop
  endfacet
  facet normal 0.5349976198870813 0 -0.8448535652497172
    outer loop
      vertex 0.10282054883864436 27 -8.971545722000055
      vertex 0.10282054883864436 30 -8.971545722000055
      vertex 0.11111404660392044 30 -8.96629392246051
    endloop
  endfacet
  facet normal 0.5758081914178895 0 -0.8175848131515526
    outer loop
      vertex 0.11111404660392044 27 -8.96629392246051
      vertex 0.11111404660392044 30 -8.96629392246051
      vertex 0.11913986089848667 30 -8.96064150629613
    endloop
  endfacet
  facet normal 0.615231590580604 0 -0.7883464276266242
    outer loop
      vertex 0.12687865683272911 27 -8.954602090672548
      vertex 0.11913986089848667 30 -8.96064150629613
      vertex 0.12687865683272911 30 -8.954602090672548
    endloop
  endfacet
  facet normal 0.6531728429537335 0 -0.7572088465065219
    outer loop
      vertex 0.13431179096940368 27 -8.948190225070993
      vertex 0.12687865683272911 30 -8.954602090672548
      vertex 0.13431179096940368 30 -8.948190225070993
    endloop
  endfacet
  facet normal 0.6895405447371199 0 -0.7242470829514165
    outer loop
      vertex 0.14142135623730953 27 -8.94142135623731
      vertex 0.13431179096940368 30 -8.948190225070993
      vertex 0.14142135623730953 30 -8.94142135623731
    endloop
  endfacet
  facet normal 0.7242470829514365 0 -0.689540544737099
    outer loop
      vertex 0.14142135623730953 27 -8.94142135623731
      vertex 0.14142135623730953 30 -8.94142135623731
      vertex 0.14819022507099183 30 -8.934311790969405
    endloop
  endfacet
  facet normal 0.7572088465065372 0 -0.6531728429537157
    outer loop
      vertex 0.14819022507099183 27 -8.934311790969405
      vertex 0.14819022507099183 30 -8.934311790969405
      vertex 0.1546020906725474 30 -8.926878656832729
    endloop
  endfacet
  facet normal 0.7883464276265502 0 -0.6152315905806988
    outer loop
      vertex 0.160641506296129 27 -8.919139860898488
      vertex 0.1546020906725474 30 -8.926878656832729
      vertex 0.160641506296129 30 -8.919139860898488
    endloop
  endfacet
  facet normal 0.8175848131516347 0 -0.575808191417773
    outer loop
      vertex 0.16629392246050906 27 -8.91111404660392
      vertex 0.160641506296129 30 -8.919139860898488
      vertex 0.16629392246050906 30 -8.91111404660392
    endloop
  endfacet
  facet normal 0.8448535652496592 0 -0.5349976198871728
    outer loop
      vertex 0.16629392246050906 27 -8.91111404660392
      vertex 0.16629392246050906 30 -8.91111404660392
      vertex 0.1715457220000544 30 -8.902820548838646
    endloop
  endfacet
  facet normal 0.8700869911087195 0 -0.4928981922297698
    outer loop
      vertex 0.17638425286967102 27 -8.8942793473652
      vertex 0.1715457220000544 30 -8.902820548838646
      vertex 0.17638425286967102 30 -8.8942793473652
    endloop
  endfacet
  facet normal 0.893224301195539 0 -0.4496113296545596
    outer loop
      vertex 0.17638425286967102 27 -8.8942793473652
      vertex 0.17638425286967102 30 -8.8942793473652
      vertex 0.18079785862468867 30 -8.885511018686056
    endloop
  endfacet
  facet normal 0.9142097557035188 0 -0.40524131400501656
    outer loop
      vertex 0.18477590650225736 27 -8.876536686473019
      vertex 0.18079785862468867 30 -8.885511018686056
      vertex 0.18477590650225736 30 -8.876536686473019
    endloop
  endfacet
  facet normal 0.9329927988347282 0 -0.359895036535016
    outer loop
      vertex 0.18477590650225736 27 -8.876536686473019
      vertex 0.18477590650225736 30 -8.876536686473019
      vertex 0.18830881303660418 30 -8.867377970678445
    endloop
  endfacet
  facet normal 0.9495281805930457 0 -0.3136817403988642
    outer loop
      vertex 0.18830881303660418 27 -8.867377970678445
      vertex 0.18830881303660418 30 -8.867377970678445
      vertex 0.19138806714644177 30 -8.858056935450893
    endloop
  endfacet
  facet normal 0.9637760657954377 0 -0.2667127574749064
    outer loop
      vertex 0.1940062506389088 27 -8.848596035980654
      vertex 0.19138806714644177 30 -8.858056935450893
      vertex 0.1940062506389088 30 -8.848596035980654
    endloop
  endfacet
  facet normal 0.9757021300385265 0 -0.21910124015687948
    outer loop
      vertex 0.1961570560806461 27 -8.839018064403227
      vertex 0.1940062506389088 30 -8.848596035980654
      vertex 0.1961570560806461 30 -8.839018064403227
    endloop
  endfacet
  facet normal 0.9852776423889408 0 -0.17096188876030344
    outer loop
      vertex 0.1961570560806461 27 -8.839018064403227
      vertex 0.1961570560806461 30 -8.839018064403227
      vertex 0.1978353019929562 30 -8.829346094891074
    endloop
  endfacet
  facet normal 0.9924795345987119 0 -0.12241067519920057
    outer loop
      vertex 0.19903694533443939 27 -8.819603428065912
      vertex 0.1978353019929562 30 -8.829346094891074
      vertex 0.19903694533443939 30 -8.819603428065912
    endloop
  endfacet
  facet normal 0 1 0
    outer loop
      vertex -0.16629392246050906 30 -8.91111404660392
      vertex 0.09427934736519954 30 -8.976384252869671
      vertex 0.08551101868605643 30 -8.980797858624689
    endloop
  endfacet
  facet normal 0 1 0
    outer loop
      vertex -0.16629392246050906 30 -8.91111404660392
      vertex 0.10282054883864436 30 -8.971545722000055
      vertex 0.09427934736519954 30 -8.976384252869671
    endloop
  endfacet
  facet normal 0 1 0
    outer loop
      vertex -0.16629392246050906 30 -8.91111404660392
      vertex 0.11111404660392044 30 -8.96629392246051
      vertex 0.10282054883864436 30 -8.971545722000055
    endloop
  endfacet
  facet normal 0 1 0
    outer loop
      vertex -0.16629392246050906 30 -8.91111404660392
      vertex 0.11913986089848667 30 -8.96064150629613
      vertex 0.11111404660392044 30 -8.96629392246051
    endloop
  endfacet
  facet normal 0 1 0
    outer loop
      vertex -0.16629392246050906 30 -8.91111404660392
      vertex 0.12687865683272911 30 -8.954602090672548
      vertex 0.11913986089848667 30 -8.96064150629613
    endloop
  endfacet
  facet normal 0 1 0
    outer loop
      vertex -0.16629392246050906 30 -8.91111404660392
      vertex 0.13431179096940368 30 -8.948190225070993
      vertex 0.12687865683272911 30 -8.954602090672548
    endloop
  endfacet
  facet normal 0 1 0
    outer loop
      vertex -0.16629392246050906 30 -8.91111404660392
      vertex 0.14142135623730953 30 -8.94142135623731
      vertex 0.13431179096940368 30 -8.948190225070993
    endloop
  endfacet
  facet normal 0 1 0
    outer loop
      vertex -0.16629392246050906 30 -8.91111404660392
      vertex 0.14819022507099183 30 -8.934311790969405
      vertex 0.14142135623730953 30 -8.94142135623731
    endloop
  endfacet
  facet normal 0 1 0
    outer loop
      vertex -0.16629392246050906 30 -8.91111404660392
      vertex 0.1546020906725474 30 -8.926878656832729
      vertex 0.14819022507099183 30 -8.934311790969405
    endloop
  endfacet
  facet normal 0 1 0
    outer loop
      vertex -0.16629392246050906 30 -8.91111404660392
      vertex 0.160641506296129 30 -8.919139860898488
      vertex 0.1546020906725474 30 -8.926878656832729
    endloop
  endfacet
  facet normal 0 1 0
    outer loop
      vertex -0.16629392246050906 30 -8.91111404660392
      vertex 0.16629392246050906 30 -8.91111404660392
      vertex 0.160641506296129 30 -8.919139860898488
    endloop
  endfacet
  facet normal 0 1 0
    outer loop
      vertex -0.16629392246050906 30 -8.91111404660392
      vertex 0.1715457220000544 30 -8.902820548838646
      vertex 0.16629392246050906 30 -8.91111404660392
    endloop
  endfacet
  facet normal 0 1 0
    outer loop
      vertex -0.16629392246050906 30 -8.91111404660392
      vertex 0.17638425286967102 30 -8.8942793473652
      vertex 0.1715457220000544 30 -8.902820548838646
    endloop
  endfacet
  facet normal 0 1 0
    outer loop
      vertex -0.16629392246050906 30 -8.91111404660392
      vertex 0.18079785862468867 30 -8.885511018686056
      vertex 0.17638425286967102 30 -8.8942793473652
    endloop
  endfacet
  facet normal 0 1 0
    outer loop
      vertex -0.16629392246050906 30 -8.91111404660392
      vertex 0.18477590650225736 30 -8.876536686473019
      vertex 0.18079785862468867 30 -8.885511018686056
    endloop
  endfacet
  facet normal 0 1 0
    outer loop
      vertex -0.16629392246050906 30 -8.91111404660392
      vertex 0.18830881303660418 30 -8.867377970678445
      vertex 0.18477590650225736 30 -8.876536686473019
    endloop
  endfacet
  facet normal 0 1 0
    outer loop
      vertex -0.16629392246050906 30 -8.91111404660392
      vertex 0.19138806714644177 30 -8.858056935450893
      vertex 0.18830881303660418 30 -8.867377970678445
    endloop
  endfacet
  facet normal 0 1 0
    outer loop
      vertex -0.16629392246050906 30 -8.91111404660392
      vertex 0.1940062506389088 30 -8.848596035980654
      vertex 0.19138806714644177 30 -8.858056935450893
    endloop
  endfacet
  facet normal 0 1 0
    outer loop
      vertex -0.16629392246050906 30 -8.91111404660392
      vertex 0.1961570560806461 30 -8.839018064403227
      vertex 0.1940062506389088 30 -8.848596035980654
    endloop
  endfacet
  facet normal 0 1 0
    outer loop
      vertex -0.16629392246050906 30 -8.91111404660392
      vertex 0.1978353019929562 30 -8.829346094891074
      vertex 0.1961570560806461 30 -8.839018064403227
    endloop
  endfacet
  facet normal 0 1 0
    outer loop
      vertex -0.16629392246050906 30 -8.91111404660392
      vertex 0.19903694533443939 30 -8.819603428065912
      vertex 0.1978353019929562 30 -8.829346094891074
    endloop
  endfacet
  facet normal 0 -1 0
    outer loop
      vertex -0.1546020906725474 27 -8.926878656832729
      vertex 0.19903694533443939 27 -8.819603428065912
      vertex 1 27 -0.2
    endloop
  endfacet
  facet normal 0.995710378729498 0 -0.09252481661889311
    outer loop
      vertex 0.19903694533443939 27 -8.819603428065912
      vertex 0.19903694533443939 30 -8.819603428065912
      vertex 1 30 -0.2
    endloop
  endfacet
  facet normal 0 1 0
    outer loop
      vertex -0.16629392246050906 30 -8.91111404660392
      vertex 1 30 -0.2
      vertex 0.19903694533443939 30 -8.819603428065912
    endloop
  endfacet
  facet normal 0 -1 0
    outer loop
      vertex -0.1546020906725474 27 -8.926878656832729
      vertex 1 27 -0.2
      vertex 1 27 0
    endloop
  endfacet
  facet normal 0.995710378729498 0 -0.09252481661889311
    outer loop
      vertex 0.19903694533443939 27 -8.819603428065912
      vertex 1 30 -0.2
      vertex 1 27 -0.2
    endloop
  endfacet
  facet normal 0 1 0
    outer loop
      vertex -0.16629392246050906 30 -8.91111404660392
      vertex 1 30 0
      vertex 1 30 -0.2
    endloop
  endfacet
  facet normal 1 0 0
    outer loop
      vertex 1 27 -0.2
      vertex 1 30 -0.2
      vertex 1 27 0
    endloop
  endfacet
  facet normal 1 0 0
    outer loop
      vertex 1 27 0
      vertex 1 30 -0.2
      vertex 1 30 0
    endloop
  endfacet
  facet normal 0 -1 0
    outer loop
      vertex -1 0 10
      vertex -1 0 0.6
      vertex 1 0 10
    endloop
  endfacet
  facet normal -1 0 0
    outer loop
      vertex -1 0 10
      vertex -1 30 0.6
      vertex -1 0 0.6
    endloop
  endfacet
  facet normal 0 0 1
    outer loop
      vertex -1 0 10
      vertex 1 0 10
      vertex -1 30 10
    endloop
  endfacet
  facet normal -1 0 0
    outer loop
      vertex -1 0 10
      vertex -1 30 10
      vertex -1 30 0.6
    endloop
  endfacet
  facet normal 0 1 0
    outer loop
      vertex -1 30 10
      vertex 1 30 0.6
      vertex -1 30 0.6
    endloop
  endfacet
  facet normal 0 -1 0
    outer loop
      vertex 1 0 10
      vertex -1 0 0.6
      vertex 1 0 0.6
    endloop
  endfacet
  facet normal 1 0 0
    outer loop
      vertex 1 0 10
      vertex 1 0 0.6
      vertex 1 30 10
    endloop
  endfacet
  facet normal 1 0 0
    outer loop
      vertex 1 30 10
      vertex 1 0 0.6
      vertex 1 30 0.6
    endloop
  endfacet
  facet normal 0 0 1
    outer loop
      vertex -1 30 10
      vertex 1 0 10
      vertex 1 30 10
    endloop
  endfacet
  facet normal 0 1 0
    outer loop
      vertex -1 30 10
      vertex 1 30 10
      vertex 1 30 0.6
    endloop
  endfacet
endsolid OpenSCAD_Model
