solid OpenSCAD_Model
  facet normal 1 0 0
    outer loop
      vertex -6 1.5 -13
      vertex -6 17.5 0
      vertex -6 1.5 0
    endloop
  endfacet
  facet normal 1 0 0
    outer loop
      vertex -6 1.5 -13
      vertex -6 17.5 -13
      vertex -6 17.5 0
    endloop
  endfacet
  facet normal 0 1 0
    outer loop
      vertex -6 1.5 -13
      vertex -6 1.5 0
      vertex 6 1.5 0
    endloop
  endfacet
  facet normal 0 -1 0
    outer loop
      vertex -6 17.5 -13
      vertex -3.5 17.5 -13
      vertex -6 17.5 0
    endloop
  endfacet
  facet normal 0 -1 0
    outer loop
      vertex -3.5 17.5 -13
      vertex -3.5 17.5 0
      vertex -6 17.5 0
    endloop
  endfacet
  facet normal 0 1 0
    outer loop
      vertex -6 1.5 -13
      vertex 6 1.5 0
      vertex 6 1.5 -13
    endloop
  endfacet
  facet normal -1 0 0
    outer loop
      vertex 6 1.5 -13
      vertex 6 1.5 0
      vertex 6 17.5 -13
    endloop
  endfacet
  facet normal -1 0 0
    outer loop
      vertex 6 1.5 0
      vertex 6 17.5 0
      vertex 6 17.5 -13
    endloop
  endfacet
  facet normal 0 -1 0
    outer loop
      vertex 3.5 17.5 -13
      vertex 6 17.5 -13
      vertex 3.5 17.5 0
    endloop
  endfacet
  facet normal 0 -1 0
    outer loop
      vertex 6 17.5 -13
      vertex 6 17.5 0
      vertex 3.5 17.5 0
    endloop
  endfacet
  facet normal 1 0 0
    outer loop
      vertex -3.5 17.5 -13
      vertex -3.5 19 -13
      vertex -3.5 17.5 0
    endloop
  endfacet
  facet normal 1 0 0
    outer loop
      vertex -3.5 19 -13
      vertex -3.5 19 0
      vertex -3.5 17.5 0
    endloop
  endfacet
  facet normal -1 0 0
    outer loop
      vertex 3.5 17.5 -13
      vertex 3.5 19 0
      vertex 3.5 19 -13
    endloop
  endfacet
  facet normal -1 0 0
    outer loop
      vertex 3.5 17.5 -13
      vertex 3.5 17.5 0
      vertex 3.5 19 0
    endloop
  endfacet
  facet normal 0 0 -1
    outer loop
      vertex -7.5 0 -13
      vertex -7.5 19 -13
      vertex -6 1.5 -13
    endloop
  endfacet
  facet normal -1 0 0
    outer loop
      vertex -7.5 0 -13
      vertex -7.5 0 0
      vertex -7.5 19 0
    endloop
  endfacet
  facet normal 0 0 -1
    outer loop
      vertex -6 1.5 -13
      vertex -7.5 19 -13
      vertex -6 17.5 -13
    endloop
  endfacet
  facet normal -1 0 0
    outer loop
      vertex -7.5 0 -13
      vertex -7.5 19 0
      vertex -7.5 19 -13
    endloop
  endfacet
  facet normal 0 0 -1
    outer loop
      vertex -7.5 0 -13
      vertex -6 1.5 -13
      vertex 7.5 0 -13
    endloop
  endfacet
  facet normal 0 -1 0
    outer loop
      vertex -7.5 0 -13
      vertex 7.5 0 0
      vertex -7.5 0 0
    endloop
  endfacet
  facet normal 0 0 -1
    outer loop
      vertex -6 17.5 -13
      vertex -7.5 19 -13
      vertex -3.5 19 -13
    endloop
  endfacet
  facet normal 0 1 0
    outer loop
      vertex -7.5 19 -13
      vertex -7.5 19 0
      vertex -3.5 19 -13
    endloop
  endfacet
  facet normal 0 0 -1
    outer loop
      vertex -6 17.5 -13
      vertex -3.5 19 -13
      vertex -3.5 17.5 -13
    endloop
  endfacet
  facet normal 0 1 0
    outer loop
      vertex -3.5 19 -13
      vertex -7.5 19 0
      vertex -3.5 19 0
    endloop
  endfacet
  facet normal 0 0 -1
    outer loop
      vertex -6 1.5 -13
      vertex 6 1.5 -13
      vertex 7.5 0 -13
    endloop
  endfacet
  facet normal 0 -1 0
    outer loop
      vertex -7.5 0 -13
      vertex 7.5 0 -13
      vertex 7.5 0 0
    endloop
  endfacet
  facet normal 0 0 -1
    outer loop
      vertex 6 1.5 -13
      vertex 6 17.5 -13
      vertex 7.5 0 -13
    endloop
  endfacet
  facet normal 1 0 0
    outer loop
      vertex 7.5 0 -13
      vertex 7.5 19 -13
      vertex 7.5 0 0
    endloop
  endfacet
  facet normal 0 0 -1
    outer loop
      vertex 7.5 0 -13
      vertex 6 17.5 -13
      vertex 7.5 19 -13
    endloop
  endfacet
  facet normal 1 0 0
    outer loop
      vertex 7.5 0 0
      vertex 7.5 19 -13
      vertex 7.5 19 0
    endloop
  endfacet
  facet normal 0 0 -1
    outer loop
      vertex 3.5 17.5 -13
      vertex 3.5 19 -13
      vertex 6 17.5 -13
    endloop
  endfacet
  facet normal 0 1 0
    outer loop
      vertex 3.5 19 -13
      vertex 3.5 19 0
      vertex 7.5 19 -13
    endloop
  endfacet
  facet normal 0 0 -1
    outer loop
      vertex 3.5 19 -13
      vertex 7.5 19 -13
      vertex 6 17.5 -13
    endloop
  endfacet
  facet normal 0 1 0
    outer loop
      vertex 7.5 19 -13
      vertex 3.5 19 0
      vertex 7.5 19 0
    endloop
  endfacet
  facet normal -1 0 0
    outer loop
      vertex -7.5 0 0
      vertex -7.5 0 0.6
      vertex -7.5 19 0.6
    endloop
  endfacet
  facet normal 0 -1 0
    outer loop
      vertex -7.5 0 0
      vertex -1 0 0.6
      vertex -7.5 0 0.6
    endloop
  endfacet
  facet normal -1 0 0
    outer loop
      vertex -7.5 0 0
      vertex -7.5 19 0.6
      vertex -7.5 19 0
    endloop
  endfacet
  facet normal 0 -1 0
    outer loop
      vertex -7.5 0 0
      vertex 1 0 0.6
      vertex -1 0 0.6
    endloop
  endfacet
  facet normal 0 0 -1
    outer loop
      vertex -6 1.5 0
      vertex -6 17.5 0
      vertex 6 1.5 0
    endloop
  endfacet
  facet normal 0 0 1
    outer loop
      vertex -7.5 0 0.6
      vertex -1 0 0.6
      vertex -1 30 0.6
    endloop
  endfacet
  facet normal 0 0 -1
    outer loop
      vertex -6 17.5 0
      vertex -3.5 17.5 0
      vertex 6 1.5 0
    endloop
  endfacet
  facet normal 0 0 1
    outer loop
      vertex -7.5 0 0.6
      vertex -1 30 0.6
      vertex -7.5 19 0.6
    endloop
  endfacet
  facet normal -0.8609265282143155 0.508729312126641 0
    outer loop
      vertex -7.5 19 0
      vertex -7.5 19 0.6
      vertex -1 30 0
    endloop
  endfacet
  facet normal 0 0 -1
    outer loop
      vertex -7.5 19 0
      vertex -1 30 0
      vertex -3.5 19 0
    endloop
  endfacet
  facet normal 0 0 -1
    outer loop
      vertex -3.5 17.5 0
      vertex -3.5 19 0
      vertex -1 30 0
    endloop
  endfacet
  facet normal -0.8609265282143155 0.508729312126641 0
    outer loop
      vertex -7.5 19 0.6
      vertex -1 30 0.6
      vertex -1 30 0
    endloop
  endfacet
  facet normal 0 0 -1
    outer loop
      vertex -3.5 17.5 0
      vertex -1 30 0
      vertex -1 27 0
    endloop
  endfacet
  facet normal 0 1 0
    outer loop
      vertex -1 30 0
      vertex -1 30 0.6
      vertex 1 30 0.6
    endloop
  endfacet
  facet normal 0 -1 0
    outer loop
      vertex 7.5 0 0.6
      vertex 1 0 0.6
      vertex -7.5 0 0
    endloop
  endfacet
  facet normal 0 -1 0
    outer loop
      vertex -7.5 0 0
      vertex 7.5 0 0
      vertex 7.5 0 0.6
    endloop
  endfacet
  facet normal 0 0 1
    outer loop
      vertex 7.5 0 0.6
      vertex 1 30 0.6
      vertex 1 0 0.6
    endloop
  endfacet
  facet normal 1 0 0
    outer loop
      vertex 7.5 0 0
      vertex 7.5 19 0
      vertex 7.5 0 0.6
    endloop
  endfacet
  facet normal 0 0 -1
    outer loop
      vertex 6 1.5 0
      vertex 3.5 17.5 0
      vertex 6 17.5 0
    endloop
  endfacet
  facet normal 1 0 0
    outer loop
      vertex 7.5 0 0.6
      vertex 7.5 19 0
      vertex 7.5 19 0.6
    endloop
  endfacet
  facet normal 0 0 -1
    outer loop
      vertex -3.5 17.5 0
      vertex -1 27 0
      vertex 6 1.5 0
    endloop
  endfacet
  facet normal 0 0 -1
    outer loop
      vertex -1 27 0
      vertex 3.5 17.5 0
      vertex 6 1.5 0
    endloop
  endfacet
  facet normal 0 0 -1
    outer loop
      vertex -1 27 0
      vertex 3.5 19 0
      vertex 3.5 17.5 0
    endloop
  endfacet
  facet normal 0 0 -1
    outer loop
      vertex -1 27 0
      vertex 1 27 0
      vertex 3.5 19 0
    endloop
  endfacet
  facet normal 0 1 0
    outer loop
      vertex -1 30 0
      vertex 1 30 0.6
      vertex 1 30 0
    endloop
  endfacet
  facet normal 0 0 -1
    outer loop
      vertex 1 27 0
      vertex 1 30 0
      vertex 7.5 19 0
    endloop
  endfacet
  facet normal 0.8609265282143155 0.508729312126641 0
    outer loop
      vertex 1 30 0
      vertex 1 30 0.6
      vertex 7.5 19 0
    endloop
  endfacet
  facet normal 0 0 1
    outer loop
      vertex 7.5 0 0.6
      vertex 7.5 19 0.6
      vertex 1 30 0.6
    endloop
  endfacet
  facet normal 0 0 -1
    outer loop
      vertex 3.5 19 0
      vertex 1 27 0
      vertex 7.5 19 0
    endloop
  endfacet
  facet normal 0.8609265282143155 0.508729312126641 0
    outer loop
      vertex 1 30 0.6
      vertex 7.5 19 0.6
      vertex 7.5 19 0
    endloop
  endfacet
  facet normal 0 -1 0
    outer loop
      vertex -0.17638425286967102 27 -6.8942793473652
      vertex -0.1715457220000544 27 -6.902820548838644
      vertex -0.18079785862468867 27 -6.885511018686056
    endloop
  endfacet
  facet normal 0 -1 0
    outer loop
      vertex -0.18079785862468867 27 -6.885511018686056
      vertex -0.1546020906725474 27 -6.926878656832729
      vertex -0.14819022507099183 27 -6.934311790969404
    endloop
  endfacet
  facet normal 0 -1 0
    outer loop
      vertex -0.18079785862468867 27 -6.885511018686056
      vertex -0.160641506296129 27 -6.919139860898486
      vertex -0.1546020906725474 27 -6.926878656832729
    endloop
  endfacet
  facet normal 0 -1 0
    outer loop
      vertex -0.18079785862468867 27 -6.885511018686056
      vertex -0.16629392246050906 27 -6.91111404660392
      vertex -0.160641506296129 27 -6.919139860898486
    endloop
  endfacet
  facet normal 0 -1 0
    outer loop
      vertex -0.18079785862468867 27 -6.885511018686056
      vertex -0.1715457220000544 27 -6.902820548838644
      vertex -0.16629392246050906 27 -6.91111404660392
    endloop
  endfacet
  facet normal 0 -1 0
    outer loop
      vertex -0.18079785862468867 27 -6.885511018686056
      vertex -0.14819022507099183 27 -6.934311790969404
      vertex -0.14142135623730953 27 -6.941421356237309
    endloop
  endfacet
  facet normal 0 -1 0
    outer loop
      vertex -0.13431179096940368 27 -6.9481902250709915
      vertex -0.18079785862468867 27 -6.885511018686056
      vertex -0.14142135623730953 27 -6.941421356237309
    endloop
  endfacet
  facet normal 0 -1 0
    outer loop
      vertex -0.13431179096940368 27 -6.9481902250709915
      vertex -0.12687865683272911 27 -6.954602090672547
      vertex -0.18079785862468867 27 -6.885511018686056
    endloop
  endfacet
  facet normal 0 -1 0
    outer loop
      vertex -0.11913986089848667 27 -6.960641506296128
      vertex -0.11111404660392044 27 -6.966293922460509
      vertex -0.18079785862468867 27 -6.885511018686056
    endloop
  endfacet
  facet normal 0 -1 0
    outer loop
      vertex -0.18079785862468867 27 -6.885511018686056
      vertex -0.10282054883864436 27 -6.971545722000054
      vertex -0.09427934736519954 27 -6.9763842528696705
    endloop
  endfacet
  facet normal 0 -1 0
    outer loop
      vertex -0.18079785862468867 27 -6.885511018686056
      vertex -0.09427934736519954 27 -6.9763842528696705
      vertex -0.08551101868605643 27 -6.980797858624689
    endloop
  endfacet
  facet normal 0 -1 0
    outer loop
      vertex -0.18079785862468867 27 -6.885511018686056
      vertex -0.11111404660392044 27 -6.966293922460509
      vertex -0.10282054883864436 27 -6.971545722000054
    endloop
  endfacet
  facet normal 0 -1 0
    outer loop
      vertex -0.11913986089848667 27 -6.960641506296128
      vertex -0.18079785862468867 27 -6.885511018686056
      vertex -0.12687865683272911 27 -6.954602090672547
    endloop
  endfacet
  facet normal 0 -1 0
    outer loop
      vertex -0.18079785862468867 27 -6.885511018686056
      vertex -0.08551101868605643 27 -6.980797858624689
      vertex -0.07653668647301796 27 -6.984775906502257
    endloop
  endfacet
  facet normal 0 -1 0
    outer loop
      vertex -0.18079785862468867 27 -6.885511018686056
      vertex -0.07653668647301796 27 -6.984775906502257
      vertex -0.06737797067844402 27 -6.988308813036604
    endloop
  endfacet
  facet normal 0 -1 0
    outer loop
      vertex -0.18079785862468867 27 -6.885511018686056
      vertex -0.04859603598065278 27 -6.9940062506389085
      vertex -0.03901806440322565 27 -6.996157056080646
    endloop
  endfacet
  facet normal 0 -1 0
    outer loop
      vertex -0.18079785862468867 27 -6.885511018686056
      vertex -0.06737797067844402 27 -6.988308813036604
      vertex -0.058056935450892466 27 -6.991388067146442
    endloop
  endfacet
  facet normal 0 -1 0
    outer loop
      vertex -0.18079785862468867 27 -6.885511018686056
      vertex -0.058056935450892466 27 -6.991388067146442
      vertex -0.04859603598065278 27 -6.9940062506389085
    endloop
  endfacet
  facet normal 0 -1 0
    outer loop
      vertex -0.18079785862468867 27 -6.885511018686056
      vertex -0.03901806440322565 27 -6.996157056080646
      vertex -0.02934609489107235 27 -6.997835301992956
    endloop
  endfacet
  facet normal 0 -1 0
    outer loop
      vertex -0.18079785862468867 27 -6.885511018686056
      vertex -0.02934609489107235 27 -6.997835301992956
      vertex -0.019603428065912122 27 -6.999036945334439
    endloop
  endfacet
  facet normal 0 -1 0
    outer loop
      vertex -0.18079785862468867 27 -6.885511018686056
      vertex -0.019603428065912122 27 -6.999036945334439
      vertex -0.009813534865483604 27 -6.999759091241034
    endloop
  endfacet
  facet normal 0 -1 0
    outer loop
      vertex -0.18079785862468867 27 -6.885511018686056
      vertex -0.009813534865483604 27 -6.999759091241034
      vertex 0 27 -7
    endloop
  endfacet
  facet normal 0 -1 0
    outer loop
      vertex -0.18079785862468867 27 -6.885511018686056
      vertex 0 27 -7
      vertex 0.009813534865483604 27 -6.999759091241034
    endloop
  endfacet
  facet normal 0 -1 0
    outer loop
      vertex -0.18079785862468867 27 -6.885511018686056
      vertex 0.009813534865483604 27 -6.999759091241034
      vertex 0.019603428065912122 27 -6.999036945334439
    endloop
  endfacet
  facet normal 0 -1 0
    outer loop
      vertex -0.18079785862468867 27 -6.885511018686056
      vertex 0.019603428065912122 27 -6.999036945334439
      vertex 0.02934609489107235 27 -6.997835301992956
    endloop
  endfacet
  facet normal 0 -1 0
    outer loop
      vertex -0.18079785862468867 27 -6.885511018686056
      vertex 0.02934609489107235 27 -6.997835301992956
      vertex 0.03901806440322565 27 -6.996157056080646
    endloop
  endfacet
  facet normal 0 -1 0
    outer loop
      vertex -0.18079785862468867 27 -6.885511018686056
      vertex 0.03901806440322565 27 -6.996157056080646
      vertex 0.04859603598065278 27 -6.9940062506389085
    endloop
  endfacet
  facet normal 0 -1 0
    outer loop
      vertex -0.18079785862468867 27 -6.885511018686056
      vertex 0.04859603598065278 27 -6.9940062506389085
      vertex 0.058056935450892466 27 -6.991388067146442
    endloop
  endfacet
  facet normal 0 -1 0
    outer loop
      vertex -0.18079785862468867 27 -6.885511018686056
      vertex 0.058056935450892466 27 -6.991388067146442
      vertex 0.06737797067844402 27 -6.988308813036604
    endloop
  endfacet
  facet normal 0 -1 0
    outer loop
      vertex -0.18079785862468867 27 -6.885511018686056
      vertex 0.06737797067844402 27 -6.988308813036604
      vertex 0.07653668647301796 27 -6.984775906502257
    endloop
  endfacet
  facet normal 0 -1 0
    outer loop
      vertex -0.18079785862468867 27 -6.885511018686056
      vertex 0.07653668647301796 27 -6.984775906502257
      vertex 0.08551101868605643 27 -6.980797858624689
    endloop
  endfacet
  facet normal 0 -1 0
    outer loop
      vertex -0.18079785862468867 27 -6.885511018686056
      vertex 0.08551101868605643 27 -6.980797858624689
      vertex 0.09427934736519954 27 -6.9763842528696705
    endloop
  endfacet
  facet normal 0 -1 0
    outer loop
      vertex -0.18079785862468867 27 -6.885511018686056
      vertex -0.1978353019929562 27 -6.829346094891072
      vertex -0.1961570560806461 27 -6.839018064403225
    endloop
  endfacet
  facet normal 0 -1 0
    outer loop
      vertex -0.18079785862468867 27 -6.885511018686056
      vertex -0.19138806714644177 27 -6.858056935450892
      vertex -0.18830881303660418 27 -6.867377970678444
    endloop
  endfacet
  facet normal 0 -1 0
    outer loop
      vertex -0.18079785862468867 27 -6.885511018686056
      vertex -0.18830881303660418 27 -6.867377970678444
      vertex -0.18477590650225736 27 -6.876536686473018
    endloop
  endfacet
  facet normal 0 -1 0
    outer loop
      vertex -0.18079785862468867 27 -6.885511018686056
      vertex -0.1940062506389088 27 -6.848596035980653
      vertex -0.19138806714644177 27 -6.858056935450892
    endloop
  endfacet
  facet normal 0 -1 0
    outer loop
      vertex -0.18079785862468867 27 -6.885511018686056
      vertex -0.1961570560806461 27 -6.839018064403225
      vertex -0.1940062506389088 27 -6.848596035980653
    endloop
  endfacet
  facet normal 0 -1 0
    outer loop
      vertex -0.18079785862468867 27 -6.885511018686056
      vertex -0.19903694533443939 27 -6.819603428065912
      vertex -0.1978353019929562 27 -6.829346094891072
    endloop
  endfacet
  facet normal -0.8932243011955208 0 -0.44961132965459594
    outer loop
      vertex -0.17638425286967102 27 -6.8942793473652
      vertex -0.18079785862468867 27 -6.885511018686056
      vertex -0.17638425286967102 30 -6.8942793473652
    endloop
  endfacet
  facet normal -0.8175848131515746 0 -0.575808191417858
    outer loop
      vertex -0.160641506296129 27 -6.919139860898486
      vertex -0.16629392246050906 27 -6.91111404660392
      vertex -0.160641506296129 30 -6.919139860898486
    endloop
  endfacet
  facet normal -0.8448535652497109 0 -0.5349976198870909
    outer loop
      vertex -0.16629392246050906 27 -6.91111404660392
      vertex -0.1715457220000544 27 -6.902820548838644
      vertex -0.1715457220000544 30 -6.902820548838644
    endloop
  endfacet
  facet normal -0.8700869911086975 0 -0.49289819222980863
    outer loop
      vertex -0.17638425286967102 27 -6.8942793473652
      vertex -0.1715457220000544 30 -6.902820548838644
      vertex -0.1715457220000544 27 -6.902820548838644
    endloop
  endfacet
  facet normal -0.7883464276266187 0 -0.6152315905806109
    outer loop
      vertex -0.160641506296129 27 -6.919139860898486
      vertex -0.160641506296129 30 -6.919139860898486
      vertex -0.1546020906725474 27 -6.926878656832729
    endloop
  endfacet
  facet normal -0.7572088465064987 0 -0.6531728429537605
    outer loop
      vertex -0.14819022507099183 27 -6.934311790969404
      vertex -0.1546020906725474 27 -6.926878656832729
      vertex -0.1546020906725474 30 -6.926878656832729
    endloop
  endfacet
  facet normal -0.6895405447370725 0 -0.7242470829514617
    outer loop
      vertex -0.13431179096940368 27 -6.9481902250709915
      vertex -0.14142135623730953 27 -6.941421356237309
      vertex -0.13431179096940368 30 -6.9481902250709915
    endloop
  endfacet
  facet normal -0.7242470829514365 0 -0.689540544737099
    outer loop
      vertex -0.14819022507099183 27 -6.934311790969404
      vertex -0.14819022507099183 30 -6.934311790969404
      vertex -0.14142135623730953 27 -6.941421356237309
    endloop
  endfacet
  facet normal -0.615231590580604 0 -0.7883464276266242
    outer loop
      vertex -0.11913986089848667 27 -6.960641506296128
      vertex -0.12687865683272911 27 -6.954602090672547
      vertex -0.11913986089848667 30 -6.960641506296128
    endloop
  endfacet
  facet normal -0.6531728429537853 0 -0.7572088465064771
    outer loop
      vertex -0.13431179096940368 27 -6.9481902250709915
      vertex -0.13431179096940368 30 -6.9481902250709915
      vertex -0.12687865683272911 27 -6.954602090672547
    endloop
  endfacet
  facet normal -0.3598950365350066 0 -0.9329927988347317
    outer loop
      vertex -0.07653668647301796 27 -6.984775906502257
      vertex -0.07653668647301796 30 -6.984775906502257
      vertex -0.06737797067844402 27 -6.988308813036604
    endloop
  endfacet
  facet normal -0.40524131400498387 0 -0.9142097557035334
    outer loop
      vertex -0.07653668647301796 27 -6.984775906502257
      vertex -0.08551101868605643 27 -6.980797858624689
      vertex -0.07653668647301796 30 -6.984775906502257
    endloop
  endfacet
  facet normal -0.31368174039889585 0 -0.9495281805930351
    outer loop
      vertex -0.06737797067844402 27 -6.988308813036604
      vertex -0.06737797067844402 30 -6.988308813036604
      vertex -0.058056935450892466 27 -6.991388067146442
    endloop
  endfacet
  facet normal -0.5349976198870813 0 -0.8448535652497172
    outer loop
      vertex -0.10282054883864436 27 -6.971545722000054
      vertex -0.11111404660392044 27 -6.966293922460509
      vertex -0.10282054883864436 30 -6.971545722000054
    endloop
  endfacet
  facet normal -0.5758081914178895 0 -0.8175848131515526
    outer loop
      vertex -0.11913986089848667 27 -6.960641506296128
      vertex -0.11913986089848667 30 -6.960641506296128
      vertex -0.11111404660392044 27 -6.966293922460509
    endloop
  endfacet
  facet normal -0.49289819222975073 0 -0.8700869911087302
    outer loop
      vertex -0.10282054883864436 27 -6.971545722000054
      vertex -0.09427934736519954 30 -6.9763842528696705
      vertex -0.09427934736519954 27 -6.9763842528696705
    endloop
  endfacet
  facet normal -0.4496113296546462 0 -0.8932243011954955
    outer loop
      vertex -0.09427934736519954 27 -6.9763842528696705
      vertex -0.09427934736519954 30 -6.9763842528696705
      vertex -0.08551101868605643 27 -6.980797858624689
    endloop
  endfacet
  facet normal -0.26671275747485484 0 -0.9637760657954518
    outer loop
      vertex -0.058056935450892466 27 -6.991388067146442
      vertex -0.058056935450892466 30 -6.991388067146442
      vertex -0.04859603598065278 27 -6.9940062506389085
    endloop
  endfacet
  facet normal -0.17096188876030463 0 -0.9852776423889407
    outer loop
      vertex -0.02934609489107235 27 -6.997835301992956
      vertex -0.03901806440322565 27 -6.996157056080646
      vertex -0.02934609489107235 30 -6.997835301992956
    endloop
  endfacet
  facet normal -0.2191012401569021 0 -0.9757021300385214
    outer loop
      vertex -0.04859603598065278 27 -6.9940062506389085
      vertex -0.03901806440322565 30 -6.996157056080646
      vertex -0.03901806440322565 27 -6.996157056080646
    endloop
  endfacet
  facet normal -0.12241067519921846 0 -0.9924795345987096
    outer loop
      vertex -0.02934609489107235 27 -6.997835301992956
      vertex -0.02934609489107235 30 -6.997835301992956
      vertex -0.019603428065912122 27 -6.999036945334439
    endloop
  endfacet
  facet normal -0.07356456359964882 0 -0.9972904566786917
    outer loop
      vertex -0.019603428065912122 27 -6.999036945334439
      vertex -0.019603428065912122 30 -6.999036945334439
      vertex -0.009813534865483604 27 -6.999759091241034
    endloop
  endfacet
  facet normal -0.024541228522925597 0 -0.9996988186962038
    outer loop
      vertex -0.009813534865483604 27 -6.999759091241034
      vertex 0 30 -7
      vertex 0 27 -7
    endloop
  endfacet
  facet normal -0.9637760657954377 0 -0.2667127574749064
    outer loop
      vertex -0.19138806714644177 27 -6.858056935450892
      vertex -0.1940062506389088 27 -6.848596035980653
      vertex -0.1940062506389088 30 -6.848596035980653
    endloop
  endfacet
  facet normal -0.9142097557035337 0 -0.40524131400498303
    outer loop
      vertex -0.18079785862468867 27 -6.885511018686056
      vertex -0.18477590650225736 27 -6.876536686473018
      vertex -0.18477590650225736 30 -6.876536686473018
    endloop
  endfacet
  facet normal -0.9329927988347398 0 -0.35989503653498556
    outer loop
      vertex -0.18477590650225736 27 -6.876536686473018
      vertex -0.18830881303660418 27 -6.867377970678444
      vertex -0.18830881303660418 30 -6.867377970678444
    endloop
  endfacet
  facet normal -0.9495281805930368 0 -0.3136817403988912
    outer loop
      vertex -0.18830881303660418 27 -6.867377970678444
      vertex -0.19138806714644177 27 -6.858056935450892
      vertex -0.18830881303660418 30 -6.867377970678444
    endloop
  endfacet
  facet normal -0.9757021300385307 0 -0.2191012401568601
    outer loop
      vertex -0.1940062506389088 27 -6.848596035980653
      vertex -0.1961570560806461 27 -6.839018064403225
      vertex -0.1940062506389088 30 -6.848596035980653
    endloop
  endfacet
  facet normal -0.9852776423889408 0 -0.17096188876030344
    outer loop
      vertex -0.1961570560806461 27 -6.839018064403225
      vertex -0.1978353019929562 27 -6.829346094891072
      vertex -0.1961570560806461 30 -6.839018064403225
    endloop
  endfacet
  facet normal -0.9924795345987093 0 -0.12241067519922257
    outer loop
      vertex -0.1978353019929562 27 -6.829346094891072
      vertex -0.19903694533443939 27 -6.819603428065912
      vertex -0.19903694533443939 30 -6.819603428065912
    endloop
  endfacet
  facet normal 0 -1 0
    outer loop
      vertex -0.18079785862468867 27 -6.885511018686056
      vertex -1 27 -0.2
      vertex -0.19903694533443939 27 -6.819603428065912
    endloop
  endfacet
  facet normal -0.99275907647206 0 -0.12012250447914664
    outer loop
      vertex -0.19903694533443939 27 -6.819603428065912
      vertex -1 27 -0.2
      vertex -0.19903694533443939 30 -6.819603428065912
    endloop
  endfacet
  facet normal -0.8175848131515746 0 -0.575808191417858
    outer loop
      vertex -0.16629392246050906 27 -6.91111404660392
      vertex -0.16629392246050906 30 -6.91111404660392
      vertex -0.160641506296129 30 -6.919139860898486
    endloop
  endfacet
  facet normal -0.8448535652497109 0 -0.5349976198870909
    outer loop
      vertex -0.16629392246050906 27 -6.91111404660392
      vertex -0.1715457220000544 30 -6.902820548838644
      vertex -0.16629392246050906 30 -6.91111404660392
    endloop
  endfacet
  facet normal -0.8700869911086975 0 -0.49289819222980863
    outer loop
      vertex -0.17638425286967102 27 -6.8942793473652
      vertex -0.17638425286967102 30 -6.8942793473652
      vertex -0.1715457220000544 30 -6.902820548838644
    endloop
  endfacet
  facet normal -0.7572088465064987 0 -0.6531728429537605
    outer loop
      vertex -0.14819022507099183 27 -6.934311790969404
      vertex -0.1546020906725474 30 -6.926878656832729
      vertex -0.14819022507099183 30 -6.934311790969404
    endloop
  endfacet
  facet normal -0.7883464276266187 0 -0.6152315905806109
    outer loop
      vertex -0.1546020906725474 27 -6.926878656832729
      vertex -0.160641506296129 30 -6.919139860898486
      vertex -0.1546020906725474 30 -6.926878656832729
    endloop
  endfacet
  facet normal -0.7242470829514365 0 -0.689540544737099
    outer loop
      vertex -0.14142135623730953 27 -6.941421356237309
      vertex -0.14819022507099183 30 -6.934311790969404
      vertex -0.14142135623730953 30 -6.941421356237309
    endloop
  endfacet
  facet normal -0.6895405447370725 0 -0.7242470829514617
    outer loop
      vertex -0.14142135623730953 27 -6.941421356237309
      vertex -0.14142135623730953 30 -6.941421356237309
      vertex -0.13431179096940368 30 -6.9481902250709915
    endloop
  endfacet
  facet normal -0.6531728429537853 0 -0.7572088465064771
    outer loop
      vertex -0.12687865683272911 27 -6.954602090672547
      vertex -0.13431179096940368 30 -6.9481902250709915
      vertex -0.12687865683272911 30 -6.954602090672547
    endloop
  endfacet
  facet normal -0.615231590580604 0 -0.7883464276266242
    outer loop
      vertex -0.12687865683272911 27 -6.954602090672547
      vertex -0.12687865683272911 30 -6.954602090672547
      vertex -0.11913986089848667 30 -6.960641506296128
    endloop
  endfacet
  facet normal -0.40524131400498387 0 -0.9142097557035334
    outer loop
      vertex -0.08551101868605643 27 -6.980797858624689
      vertex -0.08551101868605643 30 -6.980797858624689
      vertex -0.07653668647301796 30 -6.984775906502257
    endloop
  endfacet
  facet normal -0.3598950365350066 0 -0.9329927988347317
    outer loop
      vertex -0.06737797067844402 27 -6.988308813036604
      vertex -0.07653668647301796 30 -6.984775906502257
      vertex -0.06737797067844402 30 -6.988308813036604
    endloop
  endfacet
  facet normal -0.31368174039889585 0 -0.9495281805930351
    outer loop
      vertex -0.058056935450892466 27 -6.991388067146442
      vertex -0.06737797067844402 30 -6.988308813036604
      vertex -0.058056935450892466 30 -6.991388067146442
    endloop
  endfacet
  facet normal -0.5758081914178895 0 -0.8175848131515526
    outer loop
      vertex -0.11111404660392044 27 -6.966293922460509
      vertex -0.11913986089848667 30 -6.960641506296128
      vertex -0.11111404660392044 30 -6.966293922460509
    endloop
  endfacet
  facet normal -0.5349976198870813 0 -0.8448535652497172
    outer loop
      vertex -0.11111404660392044 27 -6.966293922460509
      vertex -0.11111404660392044 30 -6.966293922460509
      vertex -0.10282054883864436 30 -6.971545722000054
    endloop
  endfacet
  facet normal -0.49289819222975073 0 -0.8700869911087302
    outer loop
      vertex -0.10282054883864436 27 -6.971545722000054
      vertex -0.10282054883864436 30 -6.971545722000054
      vertex -0.09427934736519954 30 -6.9763842528696705
    endloop
  endfacet
  facet normal -0.4496113296546462 0 -0.8932243011954955
    outer loop
      vertex -0.08551101868605643 27 -6.980797858624689
      vertex -0.09427934736519954 30 -6.9763842528696705
      vertex -0.08551101868605643 30 -6.980797858624689
    endloop
  endfacet
  facet normal -0.26671275747485484 0 -0.9637760657954518
    outer loop
      vertex -0.04859603598065278 27 -6.9940062506389085
      vertex -0.058056935450892466 30 -6.991388067146442
      vertex -0.04859603598065278 30 -6.9940062506389085
    endloop
  endfacet
  facet normal -0.2191012401569021 0 -0.9757021300385214
    outer loop
      vertex -0.04859603598065278 27 -6.9940062506389085
      vertex -0.04859603598065278 30 -6.9940062506389085
      vertex -0.03901806440322565 30 -6.996157056080646
    endloop
  endfacet
  facet normal -0.17096188876030463 0 -0.9852776423889407
    outer loop
      vertex -0.03901806440322565 27 -6.996157056080646
      vertex -0.03901806440322565 30 -6.996157056080646
      vertex -0.02934609489107235 30 -6.997835301992956
    endloop
  endfacet
  facet normal -0.12241067519921846 0 -0.9924795345987096
    outer loop
      vertex -0.019603428065912122 27 -6.999036945334439
      vertex -0.02934609489107235 30 -6.997835301992956
      vertex -0.019603428065912122 30 -6.999036945334439
    endloop
  endfacet
  facet normal -0.07356456359964882 0 -0.9972904566786917
    outer loop
      vertex -0.009813534865483604 27 -6.999759091241034
      vertex -0.019603428065912122 30 -6.999036945334439
      vertex -0.009813534865483604 30 -6.999759091241034
    endloop
  endfacet
  facet normal -0.024541228522925597 0 -0.9996988186962038
    outer loop
      vertex -0.009813534865483604 27 -6.999759091241034
      vertex -0.009813534865483604 30 -6.999759091241034
      vertex 0 30 -7
    endloop
  endfacet
  facet normal -0.9637760657954377 0 -0.2667127574749064
    outer loop
      vertex -0.19138806714644177 27 -6.858056935450892
      vertex -0.1940062506389088 30 -6.848596035980653
      vertex -0.19138806714644177 30 -6.858056935450892
    endloop
  endfacet
  facet normal -0.9142097557035337 0 -0.40524131400498303
    outer loop
      vertex -0.18079785862468867 27 -6.885511018686056
      vertex -0.18477590650225736 30 -6.876536686473018
      vertex -0.18079785862468867 30 -6.885511018686056
    endloop
  endfacet
  facet normal -0.8932243011955208 0 -0.44961132965459594
    outer loop
      vertex -0.18079785862468867 27 -6.885511018686056
      vertex -0.18079785862468867 30 -6.885511018686056
      vertex -0.17638425286967102 30 -6.8942793473652
    endloop
  endfacet
  facet normal -0.9329927988347398 0 -0.35989503653498556
    outer loop
      vertex -0.18477590650225736 27 -6.876536686473018
      vertex -0.18830881303660418 30 -6.867377970678444
      vertex -0.18477590650225736 30 -6.876536686473018
    endloop
  endfacet
  facet normal -0.9495281805930368 0 -0.3136817403988912
    outer loop
      vertex -0.19138806714644177 27 -6.858056935450892
      vertex -0.19138806714644177 30 -6.858056935450892
      vertex -0.18830881303660418 30 -6.867377970678444
    endloop
  endfacet
  facet normal -0.9757021300385307 0 -0.2191012401568601
    outer loop
      vertex -0.1961570560806461 27 -6.839018064403225
      vertex -0.1961570560806461 30 -6.839018064403225
      vertex -0.1940062506389088 30 -6.848596035980653
    endloop
  endfacet
  facet normal -0.9852776423889408 0 -0.17096188876030344
    outer loop
      vertex -0.1978353019929562 27 -6.829346094891072
      vertex -0.1978353019929562 30 -6.829346094891072
      vertex -0.1961570560806461 30 -6.839018064403225
    endloop
  endfacet
  facet normal -0.9924795345987093 0 -0.12241067519922257
    outer loop
      vertex -0.1978353019929562 27 -6.829346094891072
      vertex -0.19903694533443939 30 -6.819603428065912
      vertex -0.1978353019929562 30 -6.829346094891072
    endloop
  endfacet
  facet normal 0 1 0
    outer loop
      vertex -0.160641506296129 30 -6.919139860898486
      vertex -0.16629392246050906 30 -6.91111404660392
      vertex -0.1715457220000544 30 -6.902820548838644
    endloop
  endfacet
  facet normal 0 1 0
    outer loop
      vertex -0.17638425286967102 30 -6.8942793473652
      vertex -0.160641506296129 30 -6.919139860898486
      vertex -0.1715457220000544 30 -6.902820548838644
    endloop
  endfacet
  facet normal 0 1 0
    outer loop
      vertex -0.18079785862468867 30 -6.885511018686056
      vertex -0.18477590650225736 30 -6.876536686473018
      vertex -0.160641506296129 30 -6.919139860898486
    endloop
  endfacet
  facet normal 0 1 0
    outer loop
      vertex -0.17638425286967102 30 -6.8942793473652
      vertex -0.18079785862468867 30 -6.885511018686056
      vertex -0.160641506296129 30 -6.919139860898486
    endloop
  endfacet
  facet normal 0 1 0
    outer loop
      vertex -0.14819022507099183 30 -6.934311790969404
      vertex -0.160641506296129 30 -6.919139860898486
      vertex -0.14142135623730953 30 -6.941421356237309
    endloop
  endfacet
  facet normal 0 1 0
    outer loop
      vertex -0.14819022507099183 30 -6.934311790969404
      vertex -0.1546020906725474 30 -6.926878656832729
      vertex -0.160641506296129 30 -6.919139860898486
    endloop
  endfacet
  facet normal 0 1 0
    outer loop
      vertex -0.11913986089848667 30 -6.960641506296128
      vertex -0.12687865683272911 30 -6.954602090672547
      vertex -0.160641506296129 30 -6.919139860898486
    endloop
  endfacet
  facet normal 0 1 0
    outer loop
      vertex -0.13431179096940368 30 -6.9481902250709915
      vertex -0.14142135623730953 30 -6.941421356237309
      vertex -0.160641506296129 30 -6.919139860898486
    endloop
  endfacet
  facet normal 0 1 0
    outer loop
      vertex -0.13431179096940368 30 -6.9481902250709915
      vertex -0.160641506296129 30 -6.919139860898486
      vertex -0.12687865683272911 30 -6.954602090672547
    endloop
  endfacet
  facet normal 0 1 0
    outer loop
      vertex -0.11913986089848667 30 -6.960641506296128
      vertex -0.160641506296129 30 -6.919139860898486
      vertex -0.11111404660392044 30 -6.966293922460509
    endloop
  endfacet
  facet normal 0 1 0
    outer loop
      vertex -0.160641506296129 30 -6.919139860898486
      vertex -0.10282054883864436 30 -6.971545722000054
      vertex -0.11111404660392044 30 -6.966293922460509
    endloop
  endfacet
  facet normal 0 1 0
    outer loop
      vertex -0.160641506296129 30 -6.919139860898486
      vertex -0.09427934736519954 30 -6.9763842528696705
      vertex -0.10282054883864436 30 -6.971545722000054
    endloop
  endfacet
  facet normal 0 1 0
    outer loop
      vertex -0.160641506296129 30 -6.919139860898486
      vertex -0.08551101868605643 30 -6.980797858624689
      vertex -0.09427934736519954 30 -6.9763842528696705
    endloop
  endfacet
  facet normal 0 1 0
    outer loop
      vertex -0.160641506296129 30 -6.919139860898486
      vertex -0.07653668647301796 30 -6.984775906502257
      vertex -0.08551101868605643 30 -6.980797858624689
    endloop
  endfacet
  facet normal 0 1 0
    outer loop
      vertex -0.160641506296129 30 -6.919139860898486
      vertex -0.06737797067844402 30 -6.988308813036604
      vertex -0.07653668647301796 30 -6.984775906502257
    endloop
  endfacet
  facet normal 0 1 0
    outer loop
      vertex -0.160641506296129 30 -6.919139860898486
      vertex -0.058056935450892466 30 -6.991388067146442
      vertex -0.06737797067844402 30 -6.988308813036604
    endloop
  endfacet
  facet normal 0 1 0
    outer loop
      vertex -0.160641506296129 30 -6.919139860898486
      vertex -0.04859603598065278 30 -6.9940062506389085
      vertex -0.058056935450892466 30 -6.991388067146442
    endloop
  endfacet
  facet normal 0 1 0
    outer loop
      vertex -0.160641506296129 30 -6.919139860898486
      vertex -0.02934609489107235 30 -6.997835301992956
      vertex -0.03901806440322565 30 -6.996157056080646
    endloop
  endfacet
  facet normal 0 1 0
    outer loop
      vertex -0.160641506296129 30 -6.919139860898486
      vertex -0.03901806440322565 30 -6.996157056080646
      vertex -0.04859603598065278 30 -6.9940062506389085
    endloop
  endfacet
  facet normal 0 1 0
    outer loop
      vertex -0.160641506296129 30 -6.919139860898486
      vertex -0.019603428065912122 30 -6.999036945334439
      vertex -0.02934609489107235 30 -6.997835301992956
    endloop
  endfacet
  facet normal 0 1 0
    outer loop
      vertex -0.160641506296129 30 -6.919139860898486
      vertex -0.009813534865483604 30 -6.999759091241034
      vertex -0.019603428065912122 30 -6.999036945334439
    endloop
  endfacet
  facet normal 0 1 0
    outer loop
      vertex -0.160641506296129 30 -6.919139860898486
      vertex 0 30 -7
      vertex -0.009813534865483604 30 -6.999759091241034
    endloop
  endfacet
  facet normal 0 1 0
    outer loop
      vertex -0.160641506296129 30 -6.919139860898486
      vertex 0.009813534865483604 30 -6.999759091241034
      vertex 0 30 -7
    endloop
  endfacet
  facet normal 0 1 0
    outer loop
      vertex -0.160641506296129 30 -6.919139860898486
      vertex 0.019603428065912122 30 -6.999036945334439
      vertex 0.009813534865483604 30 -6.999759091241034
    endloop
  endfacet
  facet normal 0 1 0
    outer loop
      vertex -0.160641506296129 30 -6.919139860898486
      vertex 0.02934609489107235 30 -6.997835301992956
      vertex 0.019603428065912122 30 -6.999036945334439
    endloop
  endfacet
  facet normal 0 1 0
    outer loop
      vertex -0.160641506296129 30 -6.919139860898486
      vertex 0.03901806440322565 30 -6.996157056080646
      vertex 0.02934609489107235 30 -6.997835301992956
    endloop
  endfacet
  facet normal 0 1 0
    outer loop
      vertex -0.160641506296129 30 -6.919139860898486
      vertex 0.04859603598065278 30 -6.9940062506389085
      vertex 0.03901806440322565 30 -6.996157056080646
    endloop
  endfacet
  facet normal 0 1 0
    outer loop
      vertex -0.160641506296129 30 -6.919139860898486
      vertex 0.058056935450892466 30 -6.991388067146442
      vertex 0.04859603598065278 30 -6.9940062506389085
    endloop
  endfacet
  facet normal 0 1 0
    outer loop
      vertex -0.160641506296129 30 -6.919139860898486
      vertex 0.06737797067844402 30 -6.988308813036604
      vertex 0.058056935450892466 30 -6.991388067146442
    endloop
  endfacet
  facet normal 0 1 0
    outer loop
      vertex -0.160641506296129 30 -6.919139860898486
      vertex 0.07653668647301796 30 -6.984775906502257
      vertex 0.06737797067844402 30 -6.988308813036604
    endloop
  endfacet
  facet normal 0 1 0
    outer loop
      vertex -0.18830881303660418 30 -6.867377970678444
      vertex -0.19138806714644177 30 -6.858056935450892
      vertex -0.160641506296129 30 -6.919139860898486
    endloop
  endfacet
  facet normal 0 1 0
    outer loop
      vertex -0.18477590650225736 30 -6.876536686473018
      vertex -0.18830881303660418 30 -6.867377970678444
      vertex -0.160641506296129 30 -6.919139860898486
    endloop
  endfacet
  facet normal 0 1 0
    outer loop
      vertex -0.1940062506389088 30 -6.848596035980653
      vertex -0.1961570560806461 30 -6.839018064403225
      vertex -0.160641506296129 30 -6.919139860898486
    endloop
  endfacet
  facet normal 0 1 0
    outer loop
      vertex -0.19138806714644177 30 -6.858056935450892
      vertex -0.1940062506389088 30 -6.848596035980653
      vertex -0.160641506296129 30 -6.919139860898486
    endloop
  endfacet
  facet normal 0 1 0
    outer loop
      vertex -0.160641506296129 30 -6.919139860898486
      vertex -0.1978353019929562 30 -6.829346094891072
      vertex -0.19903694533443939 30 -6.819603428065912
    endloop
  endfacet
  facet normal 0 1 0
    outer loop
      vertex -0.1961570560806461 30 -6.839018064403225
      vertex -0.1978353019929562 30 -6.829346094891072
      vertex -0.160641506296129 30 -6.919139860898486
    endloop
  endfacet
  facet normal 0 1 0
    outer loop
      vertex -0.160641506296129 30 -6.919139860898486
      vertex -0.19903694533443939 30 -6.819603428065912
      vertex -1 30 -0.2
    endloop
  endfacet
  facet normal 0 -1 0
    outer loop
      vertex -0.18079785862468867 27 -6.885511018686056
      vertex -1 27 0
      vertex -1 27 -0.2
    endloop
  endfacet
  facet normal 0 -1 0
    outer loop
      vertex -0.18079785862468867 27 -6.885511018686056
      vertex 1 27 0
      vertex -1 27 0
    endloop
  endfacet
  facet normal -0.99275907647206 0 -0.12012250447914664
    outer loop
      vertex -0.19903694533443939 30 -6.819603428065912
      vertex -1 27 -0.2
      vertex -1 30 -0.2
    endloop
  endfacet
  facet normal 0 1 0
    outer loop
      vertex -0.160641506296129 30 -6.919139860898486
      vertex -1 30 -0.2
      vertex -1 30 0
    endloop
  endfacet
  facet normal 0 1 0
    outer loop
      vertex -0.160641506296129 30 -6.919139860898486
      vertex -1 30 0
      vertex 1 30 0
    endloop
  endfacet
  facet normal -1 0 0
    outer loop
      vertex -1 27 -0.2
      vertex -1 27 0
      vertex -1 30 0
    endloop
  endfacet
  facet normal -1 0 0
    outer loop
      vertex -1 27 -0.2
      vertex -1 30 0
      vertex -1 30 -0.2
    endloop
  endfacet
  facet normal 0 -1 0
    outer loop
      vertex -0.18079785862468867 27 -6.885511018686056
      vertex 0.09427934736519954 27 -6.9763842528696705
      vertex 0.10282054883864436 27 -6.971545722000054
    endloop
  endfacet
  facet normal 0 -1 0
    outer loop
      vertex -0.18079785862468867 27 -6.885511018686056
      vertex 0.10282054883864436 27 -6.971545722000054
      vertex 0.11111404660392044 27 -6.966293922460509
    endloop
  endfacet
  facet normal 0 -1 0
    outer loop
      vertex -0.18079785862468867 27 -6.885511018686056
      vertex 0.11111404660392044 27 -6.966293922460509
      vertex 0.11913986089848667 27 -6.960641506296128
    endloop
  endfacet
  facet normal 0 -1 0
    outer loop
      vertex -0.18079785862468867 27 -6.885511018686056
      vertex 0.11913986089848667 27 -6.960641506296128
      vertex 0.12687865683272911 27 -6.954602090672547
    endloop
  endfacet
  facet normal 0 -1 0
    outer loop
      vertex -0.18079785862468867 27 -6.885511018686056
      vertex 0.12687865683272911 27 -6.954602090672547
      vertex 0.13431179096940368 27 -6.9481902250709915
    endloop
  endfacet
  facet normal 0 -1 0
    outer loop
      vertex -0.18079785862468867 27 -6.885511018686056
      vertex 0.13431179096940368 27 -6.9481902250709915
      vertex 0.14142135623730953 27 -6.941421356237309
    endloop
  endfacet
  facet normal 0 -1 0
    outer loop
      vertex -0.18079785862468867 27 -6.885511018686056
      vertex 0.14142135623730953 27 -6.941421356237309
      vertex 0.14819022507099183 27 -6.934311790969404
    endloop
  endfacet
  facet normal 0 -1 0
    outer loop
      vertex -0.18079785862468867 27 -6.885511018686056
      vertex 0.14819022507099183 27 -6.934311790969404
      vertex 0.1546020906725474 27 -6.926878656832729
    endloop
  endfacet
  facet normal 0 -1 0
    outer loop
      vertex -0.18079785862468867 27 -6.885511018686056
      vertex 0.1546020906725474 27 -6.926878656832729
      vertex 0.160641506296129 27 -6.919139860898486
    endloop
  endfacet
  facet normal 0 -1 0
    outer loop
      vertex -0.18079785862468867 27 -6.885511018686056
      vertex 0.160641506296129 27 -6.919139860898486
      vertex 0.16629392246050906 27 -6.91111404660392
    endloop
  endfacet
  facet normal 0 -1 0
    outer loop
      vertex -0.18079785862468867 27 -6.885511018686056
      vertex 0.16629392246050906 27 -6.91111404660392
      vertex 0.1715457220000544 27 -6.902820548838644
    endloop
  endfacet
  facet normal 0 -1 0
    outer loop
      vertex -0.18079785862468867 27 -6.885511018686056
      vertex 0.1715457220000544 27 -6.902820548838644
      vertex 0.17638425286967102 27 -6.8942793473652
    endloop
  endfacet
  facet normal 0 -1 0
    outer loop
      vertex -0.18079785862468867 27 -6.885511018686056
      vertex 0.17638425286967102 27 -6.8942793473652
      vertex 0.18079785862468867 27 -6.885511018686056
    endloop
  endfacet
  facet normal 0 -1 0
    outer loop
      vertex -0.18079785862468867 27 -6.885511018686056
      vertex 0.18079785862468867 27 -6.885511018686056
      vertex 0.18477590650225736 27 -6.876536686473018
    endloop
  endfacet
  facet normal 0 -1 0
    outer loop
      vertex -0.18079785862468867 27 -6.885511018686056
      vertex 0.18477590650225736 27 -6.876536686473018
      vertex 0.18830881303660418 27 -6.867377970678444
    endloop
  endfacet
  facet normal 0 -1 0
    outer loop
      vertex -0.18079785862468867 27 -6.885511018686056
      vertex 0.18830881303660418 27 -6.867377970678444
      vertex 0.19138806714644177 27 -6.858056935450892
    endloop
  endfacet
  facet normal 0 -1 0
    outer loop
      vertex -0.18079785862468867 27 -6.885511018686056
      vertex 0.19138806714644177 27 -6.858056935450892
      vertex 0.1940062506389088 27 -6.848596035980653
    endloop
  endfacet
  facet normal 0 -1 0
    outer loop
      vertex -0.18079785862468867 27 -6.885511018686056
      vertex 0.1940062506389088 27 -6.848596035980653
      vertex 0.1961570560806461 27 -6.839018064403225
    endloop
  endfacet
  facet normal 0 -1 0
    outer loop
      vertex -0.18079785862468867 27 -6.885511018686056
      vertex 0.1961570560806461 27 -6.839018064403225
      vertex 0.1978353019929562 27 -6.829346094891072
    endloop
  endfacet
  facet normal 0 -1 0
    outer loop
      vertex -0.18079785862468867 27 -6.885511018686056
      vertex 0.1978353019929562 27 -6.829346094891072
      vertex 0.19903694533443939 27 -6.819603428065912
    endloop
  endfacet
  facet normal 0.024541228522925597 0 -0.9996988186962038
    outer loop
      vertex 0 27 -7
      vertex 0 30 -7
      vertex 0.009813534865483604 27 -6.999759091241034
    endloop
  endfacet
  facet normal 0.07356456359964882 0 -0.9972904566786917
    outer loop
      vertex 0.009813534865483604 27 -6.999759091241034
      vertex 0.019603428065912122 30 -6.999036945334439
      vertex 0.019603428065912122 27 -6.999036945334439
    endloop
  endfacet
  facet normal 0.12241067519921846 0 -0.9924795345987096
    outer loop
      vertex 0.019603428065912122 27 -6.999036945334439
      vertex 0.02934609489107235 30 -6.997835301992956
      vertex 0.02934609489107235 27 -6.997835301992956
    endloop
  endfacet
  facet normal 0.17096188876030463 0 -0.9852776423889407
    outer loop
      vertex 0.02934609489107235 27 -6.997835301992956
      vertex 0.02934609489107235 30 -6.997835301992956
      vertex 0.03901806440322565 27 -6.996157056080646
    endloop
  endfacet
  facet normal 0.2191012401569021 0 -0.9757021300385214
    outer loop
      vertex 0.03901806440322565 27 -6.996157056080646
      vertex 0.04859603598065278 30 -6.9940062506389085
      vertex 0.04859603598065278 27 -6.9940062506389085
    endloop
  endfacet
  facet normal 0.26671275747485484 0 -0.9637760657954518
    outer loop
      vertex 0.04859603598065278 27 -6.9940062506389085
      vertex 0.04859603598065278 30 -6.9940062506389085
      vertex 0.058056935450892466 27 -6.991388067146442
    endloop
  endfacet
  facet normal 0.31368174039889585 0 -0.9495281805930351
    outer loop
      vertex 0.058056935450892466 27 -6.991388067146442
      vertex 0.058056935450892466 30 -6.991388067146442
      vertex 0.06737797067844402 27 -6.988308813036604
    endloop
  endfacet
  facet normal 0.3598950365350066 0 -0.9329927988347317
    outer loop
      vertex 0.06737797067844402 27 -6.988308813036604
      vertex 0.06737797067844402 30 -6.988308813036604
      vertex 0.07653668647301796 27 -6.984775906502257
    endloop
  endfacet
  facet normal 0.40524131400498387 0 -0.9142097557035334
    outer loop
      vertex 0.07653668647301796 27 -6.984775906502257
      vertex 0.08551101868605643 30 -6.980797858624689
      vertex 0.08551101868605643 27 -6.980797858624689
    endloop
  endfacet
  facet normal 0.4496113296546462 0 -0.8932243011954955
    outer loop
      vertex 0.08551101868605643 27 -6.980797858624689
      vertex 0.08551101868605643 30 -6.980797858624689
      vertex 0.09427934736519954 27 -6.9763842528696705
    endloop
  endfacet
  facet normal 0.49289819222975073 0 -0.8700869911087302
    outer loop
      vertex 0.09427934736519954 27 -6.9763842528696705
      vertex 0.10282054883864436 30 -6.971545722000054
      vertex 0.10282054883864436 27 -6.971545722000054
    endloop
  endfacet
  facet normal 0.5349976198870813 0 -0.8448535652497172
    outer loop
      vertex 0.10282054883864436 27 -6.971545722000054
      vertex 0.11111404660392044 30 -6.966293922460509
      vertex 0.11111404660392044 27 -6.966293922460509
    endloop
  endfacet
  facet normal 0.5758081914178895 0 -0.8175848131515526
    outer loop
      vertex 0.11111404660392044 27 -6.966293922460509
      vertex 0.11111404660392044 30 -6.966293922460509
      vertex 0.11913986089848667 27 -6.960641506296128
    endloop
  endfacet
  facet normal 0.615231590580604 0 -0.7883464276266242
    outer loop
      vertex 0.11913986089848667 27 -6.960641506296128
      vertex 0.11913986089848667 30 -6.960641506296128
      vertex 0.12687865683272911 27 -6.954602090672547
    endloop
  endfacet
  facet normal 0.6531728429537853 0 -0.7572088465064771
    outer loop
      vertex 0.12687865683272911 27 -6.954602090672547
      vertex 0.13431179096940368 30 -6.9481902250709915
      vertex 0.13431179096940368 27 -6.9481902250709915
    endloop
  endfacet
  facet normal 0.6895405447370725 0 -0.7242470829514617
    outer loop
      vertex 0.13431179096940368 27 -6.9481902250709915
      vertex 0.13431179096940368 30 -6.9481902250709915
      vertex 0.14142135623730953 27 -6.941421356237309
    endloop
  endfacet
  facet normal 0.7242470829514365 0 -0.689540544737099
    outer loop
      vertex 0.14142135623730953 27 -6.941421356237309
      vertex 0.14819022507099183 30 -6.934311790969404
      vertex 0.14819022507099183 27 -6.934311790969404
    endloop
  endfacet
  facet normal 0.7572088465064987 0 -0.6531728429537605
    outer loop
      vertex 0.14819022507099183 27 -6.934311790969404
      vertex 0.1546020906725474 30 -6.926878656832729
      vertex 0.1546020906725474 27 -6.926878656832729
    endloop
  endfacet
  facet normal 0.7883464276266187 0 -0.6152315905806109
    outer loop
      vertex 0.1546020906725474 27 -6.926878656832729
      vertex 0.1546020906725474 30 -6.926878656832729
      vertex 0.160641506296129 27 -6.919139860898486
    endloop
  endfacet
  facet normal 0.8175848131515746 0 -0.575808191417858
    outer loop
      vertex 0.160641506296129 27 -6.919139860898486
      vertex 0.160641506296129 30 -6.919139860898486
      vertex 0.16629392246050906 27 -6.91111404660392
    endloop
  endfacet
  facet normal 0.8448535652497109 0 -0.5349976198870909
    outer loop
      vertex 0.16629392246050906 27 -6.91111404660392
      vertex 0.1715457220000544 30 -6.902820548838644
      vertex 0.1715457220000544 27 -6.902820548838644
    endloop
  endfacet
  facet normal 0.8700869911086975 0 -0.49289819222980863
    outer loop
      vertex 0.1715457220000544 27 -6.902820548838644
      vertex 0.1715457220000544 30 -6.902820548838644
      vertex 0.17638425286967102 27 -6.8942793473652
    endloop
  endfacet
  facet normal 0.8932243011955208 0 -0.44961132965459594
    outer loop
      vertex 0.17638425286967102 27 -6.8942793473652
      vertex 0.18079785862468867 30 -6.885511018686056
      vertex 0.18079785862468867 27 -6.885511018686056
    endloop
  endfacet
  facet normal 0.9142097557035337 0 -0.40524131400498303
    outer loop
      vertex 0.18079785862468867 27 -6.885511018686056
      vertex 0.18079785862468867 30 -6.885511018686056
      vertex 0.18477590650225736 27 -6.876536686473018
    endloop
  endfacet
  facet normal 0.9329927988347398 0 -0.35989503653498556
    outer loop
      vertex 0.18477590650225736 27 -6.876536686473018
      vertex 0.18830881303660418 30 -6.867377970678444
      vertex 0.18830881303660418 27 -6.867377970678444
    endloop
  endfacet
  facet normal 0.9495281805930368 0 -0.3136817403988912
    outer loop
      vertex 0.18830881303660418 27 -6.867377970678444
      vertex 0.18830881303660418 30 -6.867377970678444
      vertex 0.19138806714644177 27 -6.858056935450892
    endloop
  endfacet
  facet normal 0.9637760657954377 0 -0.2667127574749064
    outer loop
      vertex 0.19138806714644177 27 -6.858056935450892
      vertex 0.1940062506389088 30 -6.848596035980653
      vertex 0.1940062506389088 27 -6.848596035980653
    endloop
  endfacet
  facet normal 0.9757021300385307 0 -0.2191012401568601
    outer loop
      vertex 0.1940062506389088 27 -6.848596035980653
      vertex 0.1961570560806461 30 -6.839018064403225
      vertex 0.1961570560806461 27 -6.839018064403225
    endloop
  endfacet
  facet normal 0.9852776423889408 0 -0.17096188876030344
    outer loop
      vertex 0.1961570560806461 27 -6.839018064403225
      vertex 0.1961570560806461 30 -6.839018064403225
      vertex 0.1978353019929562 27 -6.829346094891072
    endloop
  endfacet
  facet normal 0.9924795345987093 0 -0.12241067519922257
    outer loop
      vertex 0.1978353019929562 27 -6.829346094891072
      vertex 0.1978353019929562 30 -6.829346094891072
      vertex 0.19903694533443939 27 -6.819603428065912
    endloop
  endfacet
  facet normal 0 -1 0
    outer loop
      vertex -0.18079785862468867 27 -6.885511018686056
      vertex 0.19903694533443939 27 -6.819603428065912
      vertex 1 27 -0.2
    endloop
  endfacet
  facet normal 0.024541228522925597 0 -0.9996988186962038
    outer loop
      vertex 0.009813534865483604 27 -6.999759091241034
      vertex 0 30 -7
      vertex 0.009813534865483604 30 -6.999759091241034
    endloop
  endfacet
  facet normal 0.07356456359964882 0 -0.9972904566786917
    outer loop
      vertex 0.009813534865483604 27 -6.999759091241034
      vertex 0.009813534865483604 30 -6.999759091241034
      vertex 0.019603428065912122 30 -6.999036945334439
    endloop
  endfacet
  facet normal 0.12241067519921846 0 -0.9924795345987096
    outer loop
      vertex 0.019603428065912122 27 -6.999036945334439
      vertex 0.019603428065912122 30 -6.999036945334439
      vertex 0.02934609489107235 30 -6.997835301992956
    endloop
  endfacet
  facet normal 0.17096188876030463 0 -0.9852776423889407
    outer loop
      vertex 0.03901806440322565 27 -6.996157056080646
      vertex 0.02934609489107235 30 -6.997835301992956
      vertex 0.03901806440322565 30 -6.996157056080646
    endloop
  endfacet
  facet normal 0.2191012401569021 0 -0.9757021300385214
    outer loop
      vertex 0.03901806440322565 27 -6.996157056080646
      vertex 0.03901806440322565 30 -6.996157056080646
      vertex 0.04859603598065278 30 -6.9940062506389085
    endloop
  endfacet
  facet normal 0.26671275747485484 0 -0.9637760657954518
    outer loop
      vertex 0.058056935450892466 27 -6.991388067146442
      vertex 0.04859603598065278 30 -6.9940062506389085
      vertex 0.058056935450892466 30 -6.991388067146442
    endloop
  endfacet
  facet normal 0.31368174039889585 0 -0.9495281805930351
    outer loop
      vertex 0.06737797067844402 27 -6.988308813036604
      vertex 0.058056935450892466 30 -6.991388067146442
      vertex 0.06737797067844402 30 -6.988308813036604
    endloop
  endfacet
  facet normal 0.3598950365350066 0 -0.9329927988347317
    outer loop
      vertex 0.07653668647301796 27 -6.984775906502257
      vertex 0.06737797067844402 30 -6.988308813036604
      vertex 0.07653668647301796 30 -6.984775906502257
    endloop
  endfacet
  facet normal 0.40524131400498387 0 -0.9142097557035334
    outer loop
      vertex 0.07653668647301796 27 -6.984775906502257
      vertex 0.07653668647301796 30 -6.984775906502257
      vertex 0.08551101868605643 30 -6.980797858624689
    endloop
  endfacet
  facet normal 0.4496113296546462 0 -0.8932243011954955
    outer loop
      vertex 0.09427934736519954 27 -6.9763842528696705
      vertex 0.08551101868605643 30 -6.980797858624689
      vertex 0.09427934736519954 30 -6.9763842528696705
    endloop
  endfacet
  facet normal 0.49289819222975073 0 -0.8700869911087302
    outer loop
      vertex 0.09427934736519954 27 -6.9763842528696705
      vertex 0.09427934736519954 30 -6.9763842528696705
      vertex 0.10282054883864436 30 -6.971545722000054
    endloop
  endfacet
  facet normal 0.5349976198870813 0 -0.8448535652497172
    outer loop
      vertex 0.10282054883864436 27 -6.971545722000054
      vertex 0.10282054883864436 30 -6.971545722000054
      vertex 0.11111404660392044 30 -6.966293922460509
    endloop
  endfacet
  facet normal 0.5758081914178895 0 -0.8175848131515526
    outer loop
      vertex 0.11913986089848667 27 -6.960641506296128
      vertex 0.11111404660392044 30 -6.966293922460509
      vertex 0.11913986089848667 30 -6.960641506296128
    endloop
  endfacet
  facet normal 0.615231590580604 0 -0.7883464276266242
    outer loop
      vertex 0.12687865683272911 27 -6.954602090672547
      vertex 0.11913986089848667 30 -6.960641506296128
      vertex 0.12687865683272911 30 -6.954602090672547
    endloop
  endfacet
  facet normal 0.6531728429537853 0 -0.7572088465064771
    outer loop
      vertex 0.12687865683272911 27 -6.954602090672547
      vertex 0.12687865683272911 30 -6.954602090672547
      vertex 0.13431179096940368 30 -6.9481902250709915
    endloop
  endfacet
  facet normal 0.6895405447370725 0 -0.7242470829514617
    outer loop
      vertex 0.14142135623730953 27 -6.941421356237309
      vertex 0.13431179096940368 30 -6.9481902250709915
      vertex 0.14142135623730953 30 -6.941421356237309
    endloop
  endfacet
  facet normal 0.7242470829514365 0 -0.689540544737099
    outer loop
      vertex 0.14142135623730953 27 -6.941421356237309
      vertex 0.14142135623730953 30 -6.941421356237309
      vertex 0.14819022507099183 30 -6.934311790969404
    endloop
  endfacet
  facet normal 0.7572088465064987 0 -0.6531728429537605
    outer loop
      vertex 0.14819022507099183 27 -6.934311790969404
      vertex 0.14819022507099183 30 -6.934311790969404
      vertex 0.1546020906725474 30 -6.926878656832729
    endloop
  endfacet
  facet normal 0.7883464276266187 0 -0.6152315905806109
    outer loop
      vertex 0.160641506296129 27 -6.919139860898486
      vertex 0.1546020906725474 30 -6.926878656832729
      vertex 0.160641506296129 30 -6.919139860898486
    endloop
  endfacet
  facet normal 0.8175848131515746 0 -0.575808191417858
    outer loop
      vertex 0.16629392246050906 27 -6.91111404660392
      vertex 0.160641506296129 30 -6.919139860898486
      vertex 0.16629392246050906 30 -6.91111404660392
    endloop
  endfacet
  facet normal 0.8448535652497109 0 -0.5349976198870909
    outer loop
      vertex 0.16629392246050906 27 -6.91111404660392
      vertex 0.16629392246050906 30 -6.91111404660392
      vertex 0.1715457220000544 30 -6.902820548838644
    endloop
  endfacet
  facet normal 0.8700869911086975 0 -0.49289819222980863
    outer loop
      vertex 0.17638425286967102 27 -6.8942793473652
      vertex 0.1715457220000544 30 -6.902820548838644
      vertex 0.17638425286967102 30 -6.8942793473652
    endloop
  endfacet
  facet normal 0.8932243011955208 0 -0.44961132965459594
    outer loop
      vertex 0.17638425286967102 27 -6.8942793473652
      vertex 0.17638425286967102 30 -6.8942793473652
      vertex 0.18079785862468867 30 -6.885511018686056
    endloop
  endfacet
  facet normal 0.9142097557035337 0 -0.40524131400498303
    outer loop
      vertex 0.18477590650225736 27 -6.876536686473018
      vertex 0.18079785862468867 30 -6.885511018686056
      vertex 0.18477590650225736 30 -6.876536686473018
    endloop
  endfacet
  facet normal 0.9329927988347398 0 -0.35989503653498556
    outer loop
      vertex 0.18477590650225736 27 -6.876536686473018
      vertex 0.18477590650225736 30 -6.876536686473018
      vertex 0.18830881303660418 30 -6.867377970678444
    endloop
  endfacet
  facet normal 0.9495281805930368 0 -0.3136817403988912
    outer loop
      vertex 0.19138806714644177 27 -6.858056935450892
      vertex 0.18830881303660418 30 -6.867377970678444
      vertex 0.19138806714644177 30 -6.858056935450892
    endloop
  endfacet
  facet normal 0.9637760657954377 0 -0.2667127574749064
    outer loop
      vertex 0.19138806714644177 27 -6.858056935450892
      vertex 0.19138806714644177 30 -6.858056935450892
      vertex 0.1940062506389088 30 -6.848596035980653
    endloop
  endfacet
  facet normal 0.9757021300385307 0 -0.2191012401568601
    outer loop
      vertex 0.1940062506389088 27 -6.848596035980653
      vertex 0.1940062506389088 30 -6.848596035980653
      vertex 0.1961570560806461 30 -6.839018064403225
    endloop
  endfacet
  facet normal 0.9852776423889408 0 -0.17096188876030344
    outer loop
      vertex 0.1978353019929562 27 -6.829346094891072
      vertex 0.1961570560806461 30 -6.839018064403225
      vertex 0.1978353019929562 30 -6.829346094891072
    endloop
  endfacet
  facet normal 0.9924795345987093 0 -0.12241067519922257
    outer loop
      vertex 0.19903694533443939 27 -6.819603428065912
      vertex 0.1978353019929562 30 -6.829346094891072
      vertex 0.19903694533443939 30 -6.819603428065912
    endloop
  endfacet
  facet normal 0 1 0
    outer loop
      vertex -0.160641506296129 30 -6.919139860898486
      vertex 0.08551101868605643 30 -6.980797858624689
      vertex 0.07653668647301796 30 -6.984775906502257
    endloop
  endfacet
  facet normal 0 1 0
    outer loop
      vertex -0.160641506296129 30 -6.919139860898486
      vertex 0.09427934736519954 30 -6.9763842528696705
      vertex 0.08551101868605643 30 -6.980797858624689
    endloop
  endfacet
  facet normal 0 1 0
    outer loop
      vertex -0.160641506296129 30 -6.919139860898486
      vertex 0.10282054883864436 30 -6.971545722000054
      vertex 0.09427934736519954 30 -6.9763842528696705
    endloop
  endfacet
  facet normal 0 1 0
    outer loop
      vertex -0.160641506296129 30 -6.919139860898486
      vertex 0.11111404660392044 30 -6.966293922460509
      vertex 0.10282054883864436 30 -6.971545722000054
    endloop
  endfacet
  facet normal 0 1 0
    outer loop
      vertex -0.160641506296129 30 -6.919139860898486
      vertex 0.11913986089848667 30 -6.960641506296128
      vertex 0.11111404660392044 30 -6.966293922460509
    endloop
  endfacet
  facet normal 0 1 0
    outer loop
      vertex -0.160641506296129 30 -6.919139860898486
      vertex 0.12687865683272911 30 -6.954602090672547
      vertex 0.11913986089848667 30 -6.960641506296128
    endloop
  endfacet
  facet normal 0 1 0
    outer loop
      vertex -0.160641506296129 30 -6.919139860898486
      vertex 0.13431179096940368 30 -6.9481902250709915
      vertex 0.12687865683272911 30 -6.954602090672547
    endloop
  endfacet
  facet normal 0 1 0
    outer loop
      vertex -0.160641506296129 30 -6.919139860898486
      vertex 0.14142135623730953 30 -6.941421356237309
      vertex 0.13431179096940368 30 -6.9481902250709915
    endloop
  endfacet
  facet normal 0 1 0
    outer loop
      vertex -0.160641506296129 30 -6.919139860898486
      vertex 0.14819022507099183 30 -6.934311790969404
      vertex 0.14142135623730953 30 -6.941421356237309
    endloop
  endfacet
  facet normal 0 1 0
    outer loop
      vertex -0.160641506296129 30 -6.919139860898486
      vertex 0.1546020906725474 30 -6.926878656832729
      vertex 0.14819022507099183 30 -6.934311790969404
    endloop
  endfacet
  facet normal 0 1 0
    outer loop
      vertex -0.160641506296129 30 -6.919139860898486
      vertex 0.160641506296129 30 -6.919139860898486
      vertex 0.1546020906725474 30 -6.926878656832729
    endloop
  endfacet
  facet normal 0 1 0
    outer loop
      vertex -0.160641506296129 30 -6.919139860898486
      vertex 0.16629392246050906 30 -6.91111404660392
      vertex 0.160641506296129 30 -6.919139860898486
    endloop
  endfacet
  facet normal 0 1 0
    outer loop
      vertex -0.160641506296129 30 -6.919139860898486
      vertex 0.1715457220000544 30 -6.902820548838644
      vertex 0.16629392246050906 30 -6.91111404660392
    endloop
  endfacet
  facet normal 0 1 0
    outer loop
      vertex -0.160641506296129 30 -6.919139860898486
      vertex 0.17638425286967102 30 -6.8942793473652
      vertex 0.1715457220000544 30 -6.902820548838644
    endloop
  endfacet
  facet normal 0 1 0
    outer loop
      vertex -0.160641506296129 30 -6.919139860898486
      vertex 0.18079785862468867 30 -6.885511018686056
      vertex 0.17638425286967102 30 -6.8942793473652
    endloop
  endfacet
  facet normal 0 1 0
    outer loop
      vertex -0.160641506296129 30 -6.919139860898486
      vertex 0.18477590650225736 30 -6.876536686473018
      vertex 0.18079785862468867 30 -6.885511018686056
    endloop
  endfacet
  facet normal 0 1 0
    outer loop
      vertex -0.160641506296129 30 -6.919139860898486
      vertex 0.18830881303660418 30 -6.867377970678444
      vertex 0.18477590650225736 30 -6.876536686473018
    endloop
  endfacet
  facet normal 0 1 0
    outer loop
      vertex -0.160641506296129 30 -6.919139860898486
      vertex 0.19138806714644177 30 -6.858056935450892
      vertex 0.18830881303660418 30 -6.867377970678444
    endloop
  endfacet
  facet normal 0 1 0
    outer loop
      vertex -0.160641506296129 30 -6.919139860898486
      vertex 0.1940062506389088 30 -6.848596035980653
      vertex 0.19138806714644177 30 -6.858056935450892
    endloop
  endfacet
  facet normal 0 1 0
    outer loop
      vertex -0.160641506296129 30 -6.919139860898486
      vertex 0.1961570560806461 30 -6.839018064403225
      vertex 0.1940062506389088 30 -6.848596035980653
    endloop
  endfacet
  facet normal 0 1 0
    outer loop
      vertex -0.160641506296129 30 -6.919139860898486
      vertex 0.1978353019929562 30 -6.829346094891072
      vertex 0.1961570560806461 30 -6.839018064403225
    endloop
  endfacet
  facet normal 0 1 0
    outer loop
      vertex -0.160641506296129 30 -6.919139860898486
      vertex 0.19903694533443939 30 -6.819603428065912
      vertex 0.1978353019929562 30 -6.829346094891072
    endloop
  endfacet
  facet normal 0.99275907647206 0 -0.12012250447914664
    outer loop
      vertex 0.19903694533443939 27 -6.819603428065912
      vertex 0.19903694533443939 30 -6.819603428065912
      vertex 1 30 -0.2
    endloop
  endfacet
  facet normal 0 1 0
    outer loop
      vertex -0.160641506296129 30 -6.919139860898486
      vertex 1 30 -0.2
      vertex 0.19903694533443939 30 -6.819603428065912
    endloop
  endfacet
  facet normal 0 -1 0
    outer loop
      vertex -0.18079785862468867 27 -6.885511018686056
      vertex 1 27 -0.2
      vertex 1 27 0
    endloop
  endfacet
  facet normal 0.99275907647206 0 -0.12012250447914664
    outer loop
      vertex 0.19903694533443939 27 -6.819603428065912
      vertex 1 30 -0.2
      vertex 1 27 -0.2
    endloop
  endfacet
  facet normal 0 1 0
    outer loop
      vertex -0.160641506296129 30 -6.919139860898486
      vertex 1 30 0
      vertex 1 30 -0.2
    endloop
  endfacet
  facet normal 1 0 0
    outer loop
      vertex 1 27 -0.2
      vertex 1 30 -0.2
      vertex 1 27 0
    endloop
  endfacet
  facet normal 1 0 0
    outer loop
      vertex 1 27 0
      vertex 1 30 -0.2
      vertex 1 30 0
    endloop
  endfacet
  facet normal 0 -1 0
    outer loop
      vertex -1 0 10
      vertex -1 0 0.6
      vertex 1 0 10
    endloop
  endfacet
  facet normal -1 0 0
    outer loop
      vertex -1 0 10
      vertex -1 30 0.6
      vertex -1 0 0.6
    endloop
  endfacet
  facet normal 0 0 1
    outer loop
      vertex -1 0 10
      vertex 1 0 10
      vertex -1 30 10
    endloop
  endfacet
  facet normal -1 0 0
    outer loop
      vertex -1 0 10
      vertex -1 30 10
      vertex -1 30 0.6
    endloop
  endfacet
  facet normal 0 1 0
    outer loop
      vertex -1 30 10
      vertex 1 30 0.6
      vertex -1 30 0.6
    endloop
  endfacet
  facet normal 0 -1 0
    outer loop
      vertex 1 0 10
      vertex -1 0 0.6
      vertex 1 0 0.6
    endloop
  endfacet
  facet normal 1 0 0
    outer loop
      vertex 1 0 10
      vertex 1 0 0.6
      vertex 1 30 10
    endloop
  endfacet
  facet normal 1 0 0
    outer loop
      vertex 1 30 10
      vertex 1 0 0.6
      vertex 1 30 0.6
    endloop
  endfacet
  facet normal 0 0 1
    outer loop
      vertex -1 30 10
      vertex 1 0 10
      vertex 1 30 10
    endloop
  endfacet
  facet normal 0 1 0
    outer loop
      vertex -1 30 10
      vertex 1 30 10
      vertex 1 30 0.6
    endloop
  endfacet
endsolid OpenSCAD_Model
